M48
; DRILL file {KiCad 8.0.3} date 2024-07-04T13:58:54+0200
; FORMAT={-:-/ absolute / inch / decimal}
; #@! TF.CreationDate,2024-07-04T13:58:54+02:00
; #@! TF.GenerationSoftware,Kicad,Pcbnew,8.0.3
; #@! TF.FileFunction,Plated,1,2,PTH
FMAT,2
INCH
; #@! TA.AperFunction,Plated,PTH,ViaDrill
T1C0.0079
; #@! TA.AperFunction,Plated,PTH,ViaDrill
T2C0.0118
; #@! TA.AperFunction,Plated,PTH,ViaDrill
T3C0.0157
; #@! TA.AperFunction,Plated,PTH,ComponentDrill
T4C0.0236
; #@! TA.AperFunction,Plated,PTH,ComponentDrill
T5C0.0354
; #@! TA.AperFunction,Plated,PTH,ComponentDrill
T6C0.0394
; #@! TA.AperFunction,Plated,PTH,ComponentDrill
T7C0.0402
; #@! TA.AperFunction,Plated,PTH,ComponentDrill
T8C0.0433
; #@! TA.AperFunction,Plated,PTH,ComponentDrill
T9C0.0551
; #@! TA.AperFunction,Plated,PTH,ComponentDrill
T10C0.1693
%
G90
G05
T1
X3.7224Y-2.2402
X3.8169Y-2.6673
X3.8519Y-2.5
X4.0197Y-2.3406
X4.065Y-2.5197
X4.1575Y-2.3386
X4.1693Y-2.2205
X4.189Y-2.2402
X4.189Y-2.5098
X4.1929Y-2.3071
X4.1929Y-2.3386
X4.1929Y-2.374
X4.2063Y-2.0669
X4.2126Y-1.752
X4.2126Y-1.7795
X4.2126Y-2.2165
X4.2283Y-2.2402
X4.2283Y-2.3386
X4.2461Y-1.8756
X4.2461Y-1.9731
X4.2585Y-1.748
X4.2585Y-1.7756
X4.2736Y-1.9731
X4.2894Y-1.8756
X4.2913Y-2.3031
X4.2913Y-2.3425
X4.2913Y-2.3819
X4.3012Y-2.2283
X4.3045Y-1.752
X4.3051Y-1.7795
X4.3244Y-2.213
X4.3504Y-1.748
X4.3504Y-1.7756
X4.3614Y-2.2394
X4.3661Y-1.9803
X4.3661Y-2.0079
X4.3661Y-2.0787
X4.3661Y-2.1063
X4.3661Y-2.1339
X4.3661Y-2.1614
X4.3661Y-2.189
X4.3701Y-2.2677
X4.3701Y-2.315
X4.3839Y-2.2205
X4.3917Y-2.2874
X4.3937Y-2.248
X4.4016Y-2.3189
X4.4252Y-3.7165
X4.4656Y-3.69
X4.622Y-3.5276
X4.6772Y-3.5315
X4.7156Y-3.3661
X4.7156Y-3.4296
X4.8228Y-3.5354
X4.939Y-3.747
X4.9577Y-3.7165
X5.437Y-3.2579
X5.4803Y-3.5285
X5.5344Y-3.4449
X5.5362Y-3.3812
X5.5374Y-3.4154
X5.6299Y-3.3465
X5.6717Y-3.5276
X5.6732Y-3.5
X5.7028Y-3.5
X5.7028Y-3.5276
X5.7165Y-3.4252
X5.7205Y-3.3701
X5.75Y-3.3366
X5.75Y-3.4134
X5.7835Y-3.1909
X5.9252Y-3.5728
X6.0659Y-3.7156
X6.1663Y-3.0679
X6.2795Y-3.1811
X6.3465Y-4.5
X6.437Y-4.4685
X6.5472Y-4.4646
X6.6339Y-2.8691
X6.6732Y-2.8701
X6.7116Y-2.872
X6.7165Y-4.4528
X6.747Y-2.8691
X6.7844Y-2.872
X6.8209Y-2.8819
X6.8465Y-3.0118
X6.8465Y-3.0669
X6.8711Y-2.8799
X6.9016Y-3.0118
X6.9016Y-3.0669
X6.9016Y-4.0276
X7.0591Y-3.2756
X7.063Y-3.3268
T2
X3.9882Y-2.4921
X4.0197Y-2.185
X4.1142Y-4.8228
X4.1417Y-2.5315
X4.1457Y-3.1358
X4.1693Y-2.5591
X4.185Y-3.1693
X4.1969Y-3.9291
X4.2087Y-3.4724
X4.2087Y-3.5039
X4.2402Y-4.0709
X4.2992Y-2.9016
X4.3189Y-2.1142
X4.5669Y-2.4961
X4.5669Y-2.5315
X4.5669Y-2.5669
X4.5669Y-2.6024
X4.5669Y-2.6378
X4.5669Y-2.6732
X4.7913Y-3.3071
X5.437Y-2.9567
X5.8189Y-1.9606
X5.8425Y-1.937
X5.9724Y-2.0827
X6.1929Y-2.3386
X6.2205Y-2.315
X6.5118Y-4.7598
X6.5591Y-3.3898
X6.6063Y-3.3602
X7.1772Y-3.5315
T3
X3.6186Y-2.6909
X4.0827Y-2.0118
X4.4252Y-4.8071
X4.4252Y-4.8583
X4.6417Y-4.8071
X4.6417Y-4.8583
X4.8543Y-4.8071
X4.8543Y-4.8583
X5.0669Y-4.8071
X5.0669Y-4.8583
X5.2165Y-3.0079
X5.2756Y-4.8071
X5.2756Y-4.8583
X5.3346Y-2.7106
X5.3346Y-2.7461
X5.3346Y-2.7815
X5.374Y-2.7106
X5.374Y-2.7461
X5.374Y-2.7815
X5.5512Y-2.7598
X5.5768Y-2.7343
X5.7776Y-4.7795
X5.7854Y-2.4941
X5.8228Y-2.9764
X5.9016Y-2.8937
X5.9016Y-2.9764
X5.9016Y-3.0551
X5.9764Y-2.9764
X6.0344Y-3.9567
X6.0354Y-3.7953
X6.0374Y-3.8681
X6.1811Y-4.6693
X6.2283Y-4.4252
X6.3228Y-4.7874
X6.378Y-4.5984
X6.378Y-4.815
X6.4016Y-3.2205
X6.4134Y-4.5984
X6.4134Y-4.815
X6.4705Y-2.6122
X6.4961Y-2.3622
X6.5Y-2.5866
X6.5157Y-4.872
X6.537Y-2.3622
X6.5787Y-2.3622
X6.6693Y-2.2677
X7.1772Y-2.6654
T5
X3.9173Y-2.815
X3.9173Y-2.9134
X3.9173Y-3.0118
X3.9173Y-3.2047
X3.9173Y-3.3031
X3.9173Y-3.4016
X3.9173Y-3.6575
X3.9173Y-3.7559
X3.9173Y-3.8543
X3.9173Y-4.0472
X3.9173Y-4.1457
X3.9173Y-4.2441
X3.9173Y-4.5
X3.9173Y-4.5984
X3.9173Y-4.6969
X3.9173Y-4.8898
X3.9173Y-4.9882
X3.9173Y-5.0866
X4.0472Y-2.815
X4.0472Y-2.9134
X4.0472Y-3.0118
X4.0472Y-3.2047
X4.0472Y-3.3031
X4.0472Y-3.4016
X4.0472Y-3.6575
X4.0472Y-3.7559
X4.0472Y-3.8543
X4.0472Y-4.0472
X4.0472Y-4.1457
X4.0472Y-4.2441
X4.0472Y-4.5
X4.0472Y-4.5984
X4.0472Y-4.6969
X4.0472Y-4.8898
X4.0472Y-4.9882
X4.0472Y-5.0866
T6
X3.689Y-2.9606
X3.689Y-3.0606
X3.689Y-3.1606
X3.689Y-3.2606
X3.689Y-3.8031
X3.689Y-3.9031
X3.689Y-4.0031
X3.689Y-4.1031
X3.689Y-4.6496
X3.689Y-4.7496
X3.689Y-4.8496
X3.689Y-4.9496
X5.5079Y-4.5669
X5.6079Y-4.5669
X5.7008Y-3.9843
X5.7008Y-4.0843
X5.7008Y-4.1843
X5.7008Y-4.2843
X5.8248Y-3.3917
X5.9248Y-3.3917
X5.9559Y-4.1559
X5.9559Y-4.2559
X5.9866Y-1.8268
X6.0248Y-3.3917
X6.0559Y-4.1559
X6.0559Y-4.2559
X6.0866Y-1.8268
X6.1559Y-4.1559
X6.1559Y-4.2559
X6.1866Y-1.8268
X6.2559Y-4.1559
X6.2559Y-4.2559
X6.2866Y-1.8268
X6.3559Y-4.1559
X6.3559Y-4.2559
X6.3866Y-1.8268
X6.4559Y-4.1559
X6.4559Y-4.2559
X6.5559Y-4.1559
X6.5559Y-4.2559
X6.6559Y-4.1559
X6.6559Y-4.2559
X6.7559Y-4.1559
X6.7559Y-4.2559
X6.8559Y-4.1559
X6.8559Y-4.2559
X6.8976Y-4.5079
X6.9559Y-4.1559
X6.9559Y-4.2559
X6.9961Y-4.5079
X7.0559Y-4.1559
X7.0559Y-4.2559
T7
X6.6565Y-4.703
X6.6565Y-4.803
X6.6565Y-4.903
X6.6565Y-5.003
X6.6565Y-5.1478
X6.6565Y-5.2478
X6.6565Y-5.3478
X6.6565Y-5.4478
X6.9439Y-4.703
X6.9439Y-4.803
X6.9439Y-4.903
X6.9439Y-5.003
X6.9439Y-5.1478
X6.9439Y-5.2478
X6.9439Y-5.3478
X6.9439Y-5.4478
T8
X4.6969Y-3.8209
X4.6969Y-3.998
X4.6969Y-4.1831
X4.6969Y-4.3602
X4.9528Y-3.8209
X4.9528Y-3.998
X4.9528Y-4.1831
X4.9528Y-4.3602
X6.939Y-2.2579
X6.939Y-2.5138
X7.1161Y-2.2579
X7.1161Y-2.5138
T9
X4.3543Y-5.1111
X4.5543Y-5.1111
X4.7543Y-5.1111
X4.7799Y-2.0247
X4.9543Y-5.1111
X4.9799Y-2.0247
X5.1457Y-3.3661
X5.1543Y-5.1111
X5.3543Y-5.1111
X5.5118Y-2.6299
X5.5236Y-4.2559
X5.7646Y-5.1111
X5.9646Y-5.1111
X6.1646Y-5.1111
X6.2264Y-3.6043
X6.3071Y-3.4409
X6.7268Y-2.0227
X6.9268Y-2.0227
T10
X3.7441Y-1.815
X3.752Y-5.3307
T4
G00X4.1094Y-1.747
M15
G01X4.1094Y-1.7156
M16
G05
G00X4.1094Y-1.9183
M15
G01X4.1094Y-1.875
M16
G05
G00X4.4496Y-1.747
M15
G01X4.4496Y-1.7156
M16
G05
G00X4.4496Y-1.9183
M15
G01X4.4496Y-1.875
M16
G05
T6
G00X5.2874Y-2.0
M15
G01X5.2874Y-2.0787
M16
G05
G00X5.5118Y-1.9213
M15
G01X5.4331Y-1.9213
M16
G05
G00X5.5118Y-2.1575
M15
G01X5.4331Y-2.1575
M16
G05
M30
