%TF.GenerationSoftware,KiCad,Pcbnew,7.0.10*%
%TF.CreationDate,2024-05-28T14:15:07+02:00*%
%TF.ProjectId,ESPHome AIO,45535048-6f6d-4652-9041-494f2e6b6963,rev?*%
%TF.SameCoordinates,Original*%
%TF.FileFunction,Soldermask,Bot*%
%TF.FilePolarity,Negative*%
%FSLAX46Y46*%
G04 Gerber Fmt 4.6, Leading zero omitted, Abs format (unit mm)*
G04 Created by KiCad (PCBNEW 7.0.10) date 2024-05-28 14:15:07*
%MOMM*%
%LPD*%
G01*
G04 APERTURE LIST*
G04 Aperture macros list*
%AMRoundRect*
0 Rectangle with rounded corners*
0 $1 Rounding radius*
0 $2 $3 $4 $5 $6 $7 $8 $9 X,Y pos of 4 corners*
0 Add a 4 corners polygon primitive as box body*
4,1,4,$2,$3,$4,$5,$6,$7,$8,$9,$2,$3,0*
0 Add four circle primitives for the rounded corners*
1,1,$1+$1,$2,$3*
1,1,$1+$1,$4,$5*
1,1,$1+$1,$6,$7*
1,1,$1+$1,$8,$9*
0 Add four rect primitives between the rounded corners*
20,1,$1+$1,$2,$3,$4,$5,0*
20,1,$1+$1,$4,$5,$6,$7,0*
20,1,$1+$1,$6,$7,$8,$9,0*
20,1,$1+$1,$8,$9,$2,$3,0*%
G04 Aperture macros list end*
%ADD10R,1.700000X1.700000*%
%ADD11O,1.700000X1.700000*%
%ADD12R,1.400000X1.400000*%
%ADD13C,1.400000*%
%ADD14C,1.100000*%
%ADD15R,2.030000X1.730000*%
%ADD16O,2.030000X1.730000*%
%ADD17C,2.800000*%
%ADD18C,4.300000*%
%ADD19RoundRect,0.249999X0.790001X1.550001X-0.790001X1.550001X-0.790001X-1.550001X0.790001X-1.550001X0*%
%ADD20O,2.080000X3.600000*%
%ADD21C,2.000000*%
%ADD22C,0.650000*%
%ADD23O,1.000000X2.100000*%
%ADD24O,1.000000X1.800000*%
%ADD25R,3.500000X3.500000*%
%ADD26RoundRect,0.750000X-1.000000X0.750000X-1.000000X-0.750000X1.000000X-0.750000X1.000000X0.750000X0*%
%ADD27RoundRect,0.875000X-0.875000X0.875000X-0.875000X-0.875000X0.875000X-0.875000X0.875000X0.875000X0*%
%ADD28C,8.600000*%
%ADD29RoundRect,0.250000X0.600000X0.750000X-0.600000X0.750000X-0.600000X-0.750000X0.600000X-0.750000X0*%
%ADD30O,1.700000X2.000000*%
%ADD31RoundRect,0.249999X-0.790001X-1.550001X0.790001X-1.550001X0.790001X1.550001X-0.790001X1.550001X0*%
G04 APERTURE END LIST*
D10*
%TO.C,J3*%
X152060000Y-46400000D03*
D11*
X154600000Y-46400000D03*
X157140000Y-46400000D03*
X159680000Y-46400000D03*
X162220000Y-46400000D03*
%TD*%
D10*
%TO.C,J1*%
X179220000Y-105560000D03*
D11*
X179220000Y-108100000D03*
X176680000Y-105560000D03*
X176680000Y-108100000D03*
X174140000Y-105560000D03*
X174140000Y-108100000D03*
X171600000Y-105560000D03*
X171600000Y-108100000D03*
X169060000Y-105560000D03*
X169060000Y-108100000D03*
X166520000Y-105560000D03*
X166520000Y-108100000D03*
X163980000Y-105560000D03*
X163980000Y-108100000D03*
X161440000Y-105560000D03*
X161440000Y-108100000D03*
X158900000Y-105560000D03*
X158900000Y-108100000D03*
X156360000Y-105560000D03*
X156360000Y-108100000D03*
X153820000Y-105560000D03*
X153820000Y-108100000D03*
X151280000Y-105560000D03*
X151280000Y-108100000D03*
%TD*%
D12*
%TO.C,SW4*%
X99500000Y-119300000D03*
D13*
X99500000Y-116800000D03*
X99500000Y-114300000D03*
X102800000Y-119300000D03*
X102800000Y-116800000D03*
X102800000Y-114300000D03*
%TD*%
D14*
%TO.C,M4*%
X174215000Y-121995000D03*
D15*
X176375000Y-127075000D03*
D16*
X176375000Y-124535000D03*
X176375000Y-121995000D03*
X176375000Y-119455000D03*
%TD*%
D14*
%TO.C,M5*%
X174215000Y-133295000D03*
D15*
X176375000Y-138375000D03*
D16*
X176375000Y-135835000D03*
X176375000Y-133295000D03*
X176375000Y-130755000D03*
%TD*%
D10*
%TO.C,JP3*%
X153030000Y-86150000D03*
D11*
X150490000Y-86150000D03*
X147950000Y-86150000D03*
%TD*%
D17*
%TO.C,TP5*%
X140300000Y-108100000D03*
%TD*%
D10*
%TO.C,J13*%
X93700000Y-96600000D03*
D11*
X93700000Y-99140000D03*
X93700000Y-101680000D03*
X93700000Y-104220000D03*
%TD*%
D12*
%TO.C,SW8*%
X99500000Y-97900000D03*
D13*
X99500000Y-95400000D03*
X99500000Y-92900000D03*
X102800000Y-97900000D03*
X102800000Y-95400000D03*
X102800000Y-92900000D03*
%TD*%
D17*
%TO.C,TP1*%
X160200000Y-87400000D03*
%TD*%
D12*
%TO.C,SW6*%
X99500000Y-129200000D03*
D13*
X99500000Y-126700000D03*
X99500000Y-124200000D03*
X102800000Y-129200000D03*
X102800000Y-126700000D03*
X102800000Y-124200000D03*
%TD*%
D18*
%TO.C,H4*%
X184900000Y-135700000D03*
%TD*%
D12*
%TO.C,SW5*%
X99500000Y-86400000D03*
D13*
X99500000Y-83900000D03*
X99500000Y-81400000D03*
X102800000Y-86400000D03*
X102800000Y-83900000D03*
X102800000Y-81400000D03*
%TD*%
D17*
%TO.C,TP4*%
X131200000Y-85700000D03*
%TD*%
D19*
%TO.C,M1*%
X175940000Y-51377500D03*
D20*
X170860000Y-51377500D03*
%TD*%
D19*
%TO.C,J8*%
X126490000Y-51427500D03*
D20*
X121410000Y-51427500D03*
%TD*%
D18*
%TO.C,H1*%
X184900000Y-45700000D03*
%TD*%
D12*
%TO.C,SW10*%
X99500000Y-107800000D03*
D13*
X99500000Y-105300000D03*
X99500000Y-102800000D03*
X102800000Y-107800000D03*
X102800000Y-105300000D03*
X102800000Y-102800000D03*
%TD*%
D21*
%TO.C,SW2*%
X119300000Y-97050000D03*
X125800000Y-97050000D03*
X119300000Y-101550000D03*
X125800000Y-101550000D03*
%TD*%
D22*
%TO.C,J7*%
X111590000Y-47655000D03*
X105810000Y-47655000D03*
D23*
X113020000Y-48175000D03*
D24*
X113020000Y-43975000D03*
D23*
X104380000Y-48175000D03*
D24*
X104380000Y-43975000D03*
%TD*%
D10*
%TO.C,J2*%
X144800000Y-101200000D03*
D11*
X144800000Y-103740000D03*
X144800000Y-106280000D03*
X144800000Y-108820000D03*
%TD*%
D25*
%TO.C,J9*%
X139000000Y-55050000D03*
D26*
X139000000Y-49050000D03*
D27*
X134300000Y-52050000D03*
%TD*%
D10*
%TO.C,J10*%
X93700000Y-75200000D03*
D11*
X93700000Y-77740000D03*
X93700000Y-80280000D03*
X93700000Y-82820000D03*
%TD*%
D21*
%TO.C,SW1*%
X119300000Y-106250000D03*
X125800000Y-106250000D03*
X119300000Y-110750000D03*
X125800000Y-110750000D03*
%TD*%
D28*
%TO.C,H3*%
X95300000Y-135400000D03*
%TD*%
D14*
%TO.C,M2*%
X166915000Y-121995000D03*
D15*
X169075000Y-127075000D03*
D16*
X169075000Y-124535000D03*
X169075000Y-121995000D03*
X169075000Y-119455000D03*
%TD*%
D10*
%TO.C,J11*%
X93700000Y-118100000D03*
D11*
X93700000Y-120640000D03*
X93700000Y-123180000D03*
X93700000Y-125720000D03*
%TD*%
D12*
%TO.C,SW3*%
X99500000Y-76500000D03*
D13*
X99500000Y-74000000D03*
X99500000Y-71500000D03*
X102800000Y-76500000D03*
X102800000Y-74000000D03*
X102800000Y-71500000D03*
%TD*%
D29*
%TO.C,J4*%
X177700000Y-114500000D03*
D30*
X175200000Y-114500000D03*
%TD*%
D31*
%TO.C,J6*%
X146420000Y-129822500D03*
D20*
X151500000Y-129822500D03*
X156580000Y-129822500D03*
%TD*%
D17*
%TO.C,TP3*%
X140000000Y-66800000D03*
%TD*%
D31*
%TO.C,J5*%
X110600000Y-129822500D03*
D20*
X115680000Y-129822500D03*
X120760000Y-129822500D03*
X125840000Y-129822500D03*
X130920000Y-129822500D03*
X136000000Y-129822500D03*
%TD*%
D28*
%TO.C,H2*%
X95100000Y-46100000D03*
%TD*%
D17*
%TO.C,TP2*%
X158150000Y-91550000D03*
%TD*%
D14*
%TO.C,M3*%
X166915000Y-133295000D03*
D15*
X169075000Y-138375000D03*
D16*
X169075000Y-135835000D03*
X169075000Y-133295000D03*
X169075000Y-130755000D03*
%TD*%
G36*
X112143039Y-42319685D02*
G01*
X112188794Y-42372489D01*
X112200000Y-42424000D01*
X112200000Y-49476000D01*
X112180315Y-49543039D01*
X112127511Y-49588794D01*
X112076000Y-49600000D01*
X105324000Y-49600000D01*
X105256961Y-49580315D01*
X105211206Y-49527511D01*
X105200000Y-49476000D01*
X105200000Y-42424000D01*
X105219685Y-42356961D01*
X105272489Y-42311206D01*
X105324000Y-42300000D01*
X112076000Y-42300000D01*
X112143039Y-42319685D01*
G37*
G36*
X176543039Y-75219685D02*
G01*
X176588794Y-75272489D01*
X176600000Y-75324000D01*
X176600000Y-79076000D01*
X176580315Y-79143039D01*
X176527511Y-79188794D01*
X176476000Y-79200000D01*
X172724000Y-79200000D01*
X172656961Y-79180315D01*
X172611206Y-79127511D01*
X172600000Y-79076000D01*
X172600000Y-75324000D01*
X172619685Y-75256961D01*
X172672489Y-75211206D01*
X172724000Y-75200000D01*
X176476000Y-75200000D01*
X176543039Y-75219685D01*
G37*
M02*
