%TF.GenerationSoftware,KiCad,Pcbnew,7.0.10*%
%TF.CreationDate,2024-05-28T14:15:07+02:00*%
%TF.ProjectId,ESPHome AIO,45535048-6f6d-4652-9041-494f2e6b6963,rev?*%
%TF.SameCoordinates,Original*%
%TF.FileFunction,Paste,Top*%
%TF.FilePolarity,Positive*%
%FSLAX46Y46*%
G04 Gerber Fmt 4.6, Leading zero omitted, Abs format (unit mm)*
G04 Created by KiCad (PCBNEW 7.0.10) date 2024-05-28 14:15:07*
%MOMM*%
%LPD*%
G01*
G04 APERTURE LIST*
G04 Aperture macros list*
%AMRoundRect*
0 Rectangle with rounded corners*
0 $1 Rounding radius*
0 $2 $3 $4 $5 $6 $7 $8 $9 X,Y pos of 4 corners*
0 Add a 4 corners polygon primitive as box body*
4,1,4,$2,$3,$4,$5,$6,$7,$8,$9,$2,$3,0*
0 Add four circle primitives for the rounded corners*
1,1,$1+$1,$2,$3*
1,1,$1+$1,$4,$5*
1,1,$1+$1,$6,$7*
1,1,$1+$1,$8,$9*
0 Add four rect primitives between the rounded corners*
20,1,$1+$1,$2,$3,$4,$5,0*
20,1,$1+$1,$4,$5,$6,$7,0*
20,1,$1+$1,$6,$7,$8,$9,0*
20,1,$1+$1,$8,$9,$2,$3,0*%
G04 Aperture macros list end*
%ADD10R,4.240000X3.810000*%
%ADD11RoundRect,0.250000X-0.262500X-0.450000X0.262500X-0.450000X0.262500X0.450000X-0.262500X0.450000X0*%
%ADD12RoundRect,0.250000X-0.450000X0.262500X-0.450000X-0.262500X0.450000X-0.262500X0.450000X0.262500X0*%
%ADD13R,0.650000X1.100000*%
%ADD14R,1.050000X0.600000*%
%ADD15RoundRect,0.250000X0.262500X0.450000X-0.262500X0.450000X-0.262500X-0.450000X0.262500X-0.450000X0*%
%ADD16RoundRect,0.250000X-0.250000X-0.475000X0.250000X-0.475000X0.250000X0.475000X-0.250000X0.475000X0*%
%ADD17RoundRect,0.250000X0.475000X-0.250000X0.475000X0.250000X-0.475000X0.250000X-0.475000X-0.250000X0*%
%ADD18R,0.550000X0.200000*%
%ADD19R,0.200000X0.550000*%
%ADD20R,0.350000X0.200000*%
%ADD21R,0.200000X0.350000*%
%ADD22R,2.720000X2.650000*%
%ADD23R,1.530000X2.650000*%
%ADD24R,0.200000X1.100000*%
%ADD25R,0.600000X0.200000*%
%ADD26R,0.650000X2.000000*%
%ADD27R,3.200000X2.390000*%
%ADD28RoundRect,0.250000X0.450000X-0.262500X0.450000X0.262500X-0.450000X0.262500X-0.450000X-0.262500X0*%
%ADD29RoundRect,0.250000X1.000000X0.650000X-1.000000X0.650000X-1.000000X-0.650000X1.000000X-0.650000X0*%
%ADD30RoundRect,0.160000X0.245000X0.160000X-0.245000X0.160000X-0.245000X-0.160000X0.245000X-0.160000X0*%
%ADD31RoundRect,0.093750X0.093750X0.106250X-0.093750X0.106250X-0.093750X-0.106250X0.093750X-0.106250X0*%
%ADD32R,0.700000X0.300000*%
%ADD33R,1.000000X1.700000*%
%ADD34R,0.600000X1.050000*%
%ADD35R,1.100000X0.650000*%
%ADD36RoundRect,0.243750X0.456250X-0.243750X0.456250X0.243750X-0.456250X0.243750X-0.456250X-0.243750X0*%
%ADD37RoundRect,0.243750X-0.456250X0.243750X-0.456250X-0.243750X0.456250X-0.243750X0.456250X0.243750X0*%
%ADD38R,0.600000X1.240000*%
%ADD39R,0.300000X1.240000*%
%ADD40RoundRect,0.250000X-0.475000X0.250000X-0.475000X-0.250000X0.475000X-0.250000X0.475000X0.250000X0*%
%ADD41R,3.500000X1.600000*%
%ADD42R,9.750000X12.200000*%
%ADD43R,0.900000X1.500000*%
%ADD44R,1.500000X0.900000*%
%ADD45R,0.900000X0.900000*%
%ADD46R,1.450000X0.450000*%
%ADD47RoundRect,0.250000X0.250000X0.475000X-0.250000X0.475000X-0.250000X-0.475000X0.250000X-0.475000X0*%
%ADD48R,1.200000X1.200000*%
%ADD49R,2.500000X1.500000*%
%ADD50R,7.000000X7.000000*%
G04 APERTURE END LIST*
D10*
%TO.C,F1*%
X125115000Y-62300000D03*
X131485000Y-62300000D03*
%TD*%
D11*
%TO.C,R5*%
X156987500Y-120100000D03*
X158812500Y-120100000D03*
%TD*%
D12*
%TO.C,R1*%
X116350000Y-106287500D03*
X116350000Y-108112500D03*
%TD*%
%TO.C,R25*%
X153100000Y-88937500D03*
X153100000Y-90762500D03*
%TD*%
%TO.C,R15*%
X100000000Y-58037500D03*
X100000000Y-59862500D03*
%TD*%
D13*
%TO.C,Q6*%
X126860000Y-120600000D03*
X124940000Y-120600000D03*
X125900000Y-122700000D03*
%TD*%
D14*
%TO.C,IC7*%
X148200000Y-80950000D03*
X148200000Y-82850000D03*
X150400000Y-81900000D03*
%TD*%
D11*
%TO.C,R21*%
X110087500Y-71200000D03*
X111912500Y-71200000D03*
%TD*%
D15*
%TO.C,R27*%
X143462500Y-83437500D03*
X141637500Y-83437500D03*
%TD*%
D12*
%TO.C,R3*%
X158600000Y-82687500D03*
X158600000Y-84512500D03*
%TD*%
D16*
%TO.C,C6*%
X107550000Y-54900000D03*
X109450000Y-54900000D03*
%TD*%
D17*
%TO.C,C12*%
X139600000Y-78850000D03*
X139600000Y-76950000D03*
%TD*%
%TO.C,C3*%
X102050000Y-58500000D03*
X102050000Y-56600000D03*
%TD*%
D18*
%TO.C,IC4*%
X104475000Y-58475000D03*
X104475000Y-58875000D03*
X104475000Y-59275000D03*
X104475000Y-59675000D03*
X104475000Y-60075000D03*
X104475000Y-60475000D03*
D19*
X105000000Y-61400000D03*
X105400000Y-61400000D03*
X105800000Y-61400000D03*
X106200000Y-61400000D03*
X106600000Y-61400000D03*
X107000000Y-61400000D03*
X107400000Y-61400000D03*
X107800000Y-61400000D03*
X108200000Y-61400000D03*
X108600000Y-61400000D03*
X109000000Y-61400000D03*
X109400000Y-61400000D03*
X109800000Y-61400000D03*
D20*
X110425000Y-60575000D03*
X110425000Y-60125000D03*
X110425000Y-59675000D03*
X110425000Y-59275000D03*
X110425000Y-58825000D03*
X110425000Y-58375000D03*
D19*
X109800000Y-57550000D03*
X109400000Y-57550000D03*
X109000000Y-57550000D03*
X108600000Y-57550000D03*
X108200000Y-57550000D03*
X107800000Y-57550000D03*
D21*
X107399000Y-57450000D03*
X106999000Y-57450000D03*
X106599000Y-57450000D03*
X106199000Y-57450000D03*
D19*
X105800000Y-57550000D03*
X105400000Y-57550000D03*
X105000000Y-57550000D03*
D22*
X106435000Y-59475000D03*
D23*
X108960000Y-59475000D03*
D24*
X110149000Y-60125000D03*
X110150000Y-58825000D03*
D25*
X107199000Y-57725000D03*
X106399000Y-57725000D03*
%TD*%
D26*
%TO.C,IC1*%
X172035000Y-62475000D03*
X173305000Y-62475000D03*
X174575000Y-62475000D03*
X175845000Y-62475000D03*
X175845000Y-57525000D03*
X174575000Y-57525000D03*
X173305000Y-57525000D03*
X172035000Y-57525000D03*
D27*
X173940000Y-60000000D03*
%TD*%
D28*
%TO.C,R29*%
X123625000Y-86362500D03*
X123625000Y-84537500D03*
%TD*%
D12*
%TO.C,R28*%
X147900000Y-88937500D03*
X147900000Y-90762500D03*
%TD*%
%TO.C,R4*%
X160600000Y-81287500D03*
X160600000Y-83112500D03*
%TD*%
D29*
%TO.C,D1*%
X117300000Y-60650000D03*
X113300000Y-60650000D03*
%TD*%
D30*
%TO.C,U1*%
X113000000Y-57900000D03*
X113000000Y-57100000D03*
D31*
X113887500Y-58150000D03*
X113887500Y-57500000D03*
X113887500Y-56850000D03*
X112112500Y-56850000D03*
X112112500Y-57500000D03*
X112112500Y-58150000D03*
%TD*%
D12*
%TO.C,R22*%
X107700000Y-73387500D03*
X107700000Y-75212500D03*
%TD*%
%TO.C,R24*%
X139375000Y-82637500D03*
X139375000Y-84462500D03*
%TD*%
%TO.C,R16*%
X100000000Y-61487500D03*
X100000000Y-63312500D03*
%TD*%
D32*
%TO.C,IC9*%
X118725000Y-86362500D03*
X118725000Y-86862500D03*
X118725000Y-87362500D03*
X118725000Y-87862500D03*
X120825000Y-87862500D03*
X120825000Y-87362500D03*
X120825000Y-86862500D03*
X120825000Y-86362500D03*
D33*
X119775000Y-87112500D03*
%TD*%
D34*
%TO.C,Q8*%
X152300000Y-120800000D03*
X150400000Y-120800000D03*
X151350000Y-123000000D03*
%TD*%
D16*
%TO.C,C9*%
X111750000Y-53200000D03*
X113650000Y-53200000D03*
%TD*%
D11*
%TO.C,R32*%
X122562500Y-88550000D03*
X124387500Y-88550000D03*
%TD*%
%TO.C,R9*%
X109727500Y-118300000D03*
X111552500Y-118300000D03*
%TD*%
D35*
%TO.C,Q9*%
X94350000Y-65240000D03*
X94350000Y-67160000D03*
X96450000Y-66200000D03*
%TD*%
D11*
%TO.C,R8*%
X119827500Y-118500000D03*
X121652500Y-118500000D03*
%TD*%
%TO.C,R13*%
X146737500Y-123000000D03*
X148562500Y-123000000D03*
%TD*%
D36*
%TO.C,D4*%
X145400000Y-83375000D03*
X145400000Y-81500000D03*
%TD*%
D11*
%TO.C,R7*%
X130027500Y-118500000D03*
X131852500Y-118500000D03*
%TD*%
D16*
%TO.C,C13*%
X118350000Y-84000000D03*
X120250000Y-84000000D03*
%TD*%
D12*
%TO.C,R18*%
X93800000Y-61587500D03*
X93800000Y-63412500D03*
%TD*%
%TO.C,R17*%
X93800000Y-58087500D03*
X93800000Y-59912500D03*
%TD*%
D36*
%TO.C,D2*%
X96700000Y-59937500D03*
X96700000Y-58062500D03*
%TD*%
D37*
%TO.C,D5*%
X126250000Y-87712500D03*
X126250000Y-89587500D03*
%TD*%
D12*
%TO.C,R31*%
X116275000Y-88537500D03*
X116275000Y-90362500D03*
%TD*%
D35*
%TO.C,Q1*%
X162000000Y-122790000D03*
X162000000Y-124710000D03*
X164100000Y-123750000D03*
%TD*%
D32*
%TO.C,IC8*%
X141950000Y-86112500D03*
X141950000Y-86612500D03*
X141950000Y-87112500D03*
X141950000Y-87612500D03*
X144050000Y-87612500D03*
X144050000Y-87112500D03*
X144050000Y-86612500D03*
X144050000Y-86112500D03*
D33*
X143000000Y-86862500D03*
%TD*%
D35*
%TO.C,Q2*%
X162000000Y-118240000D03*
X162000000Y-120160000D03*
X164100000Y-119200000D03*
%TD*%
D38*
%TO.C,J7*%
X111900000Y-48775000D03*
X111100000Y-48775000D03*
D39*
X109950000Y-48775000D03*
X108950000Y-48775000D03*
X108450000Y-48775000D03*
X107450000Y-48775000D03*
D38*
X106300000Y-48775000D03*
X105500000Y-48775000D03*
X105500000Y-48775000D03*
X106300000Y-48775000D03*
D39*
X106950000Y-48775000D03*
X107950000Y-48775000D03*
X109450000Y-48775000D03*
X110450000Y-48775000D03*
D38*
X111100000Y-48775000D03*
X111900000Y-48775000D03*
%TD*%
D12*
%TO.C,R30*%
X116275000Y-85062500D03*
X116275000Y-86887500D03*
%TD*%
D36*
%TO.C,D3*%
X107300000Y-71537500D03*
X107300000Y-69662500D03*
%TD*%
D16*
%TO.C,C5*%
X111750000Y-55200000D03*
X113650000Y-55200000D03*
%TD*%
D40*
%TO.C,C10*%
X136450000Y-73250000D03*
X136450000Y-75150000D03*
%TD*%
D13*
%TO.C,Q4*%
X121660000Y-120600000D03*
X119740000Y-120600000D03*
X120700000Y-122700000D03*
%TD*%
D41*
%TO.C,IC5*%
X132500000Y-78230000D03*
X132500000Y-73150000D03*
D42*
X122225000Y-75690000D03*
%TD*%
D11*
%TO.C,R10*%
X125077500Y-118500000D03*
X126902500Y-118500000D03*
%TD*%
D43*
%TO.C,IC2*%
X182300000Y-69950000D03*
X181030000Y-69950000D03*
X179760000Y-69950000D03*
X178490000Y-69950000D03*
X177220000Y-69950000D03*
X175950000Y-69950000D03*
X174680000Y-69950000D03*
X173410000Y-69950000D03*
X172140000Y-69950000D03*
X170870000Y-69950000D03*
X169600000Y-69950000D03*
X168330000Y-69950000D03*
X167060000Y-69950000D03*
X165790000Y-69950000D03*
D44*
X164540000Y-71715000D03*
X164540000Y-72985000D03*
X164540000Y-74255000D03*
X164540000Y-75525000D03*
X164540000Y-76795000D03*
X164540000Y-78065000D03*
X164540000Y-79335000D03*
X164540000Y-80605000D03*
X164540000Y-81875000D03*
X164540000Y-83145000D03*
X164540000Y-84415000D03*
X164540000Y-85685000D03*
D43*
X165790000Y-87450000D03*
X167060000Y-87450000D03*
X168330000Y-87450000D03*
X169600000Y-87450000D03*
X170870000Y-87450000D03*
X172140000Y-87450000D03*
X173410000Y-87450000D03*
X174680000Y-87450000D03*
X175950000Y-87450000D03*
X177220000Y-87450000D03*
X178490000Y-87450000D03*
X179760000Y-87450000D03*
X181030000Y-87450000D03*
X182300000Y-87450000D03*
D45*
X174580000Y-77200000D03*
X175980000Y-77200000D03*
X175980000Y-75800000D03*
X174580000Y-75800000D03*
X173180000Y-75800000D03*
X173180000Y-77200000D03*
X173180000Y-78600000D03*
X174580000Y-78600000D03*
X175980000Y-78600000D03*
%TD*%
D28*
%TO.C,R6*%
X159800000Y-114212500D03*
X159800000Y-112387500D03*
%TD*%
D15*
%TO.C,R12*%
X152362500Y-118700000D03*
X150537500Y-118700000D03*
%TD*%
D12*
%TO.C,R23*%
X139375000Y-86137500D03*
X139375000Y-87962500D03*
%TD*%
D11*
%TO.C,R20*%
X107287500Y-67200000D03*
X109112500Y-67200000D03*
%TD*%
D46*
%TO.C,IC3*%
X169225000Y-115075000D03*
X169225000Y-114425000D03*
X169225000Y-113775000D03*
X169225000Y-113125000D03*
X164775000Y-113125000D03*
X164775000Y-113775000D03*
X164775000Y-114425000D03*
X164775000Y-115075000D03*
%TD*%
D12*
%TO.C,R2*%
X116350000Y-97087500D03*
X116350000Y-98912500D03*
%TD*%
D47*
%TO.C,C1*%
X114450000Y-65550000D03*
X112550000Y-65550000D03*
%TD*%
D13*
%TO.C,Q7*%
X116660000Y-120600000D03*
X114740000Y-120600000D03*
X115700000Y-122700000D03*
%TD*%
D11*
%TO.C,R26*%
X141637500Y-81437500D03*
X143462500Y-81437500D03*
%TD*%
D40*
%TO.C,C11*%
X139650000Y-73250000D03*
X139650000Y-75150000D03*
%TD*%
D48*
%TO.C,D7*%
X144150000Y-64950000D03*
X146950000Y-64950000D03*
%TD*%
D47*
%TO.C,C2*%
X114450000Y-67600000D03*
X112550000Y-67600000D03*
%TD*%
D12*
%TO.C,R19*%
X96700000Y-61687500D03*
X96700000Y-63512500D03*
%TD*%
D11*
%TO.C,R11*%
X114877500Y-118500000D03*
X116702500Y-118500000D03*
%TD*%
D13*
%TO.C,Q3*%
X131860000Y-120600000D03*
X129940000Y-120600000D03*
X130900000Y-122700000D03*
%TD*%
D47*
%TO.C,C8*%
X106850000Y-51100000D03*
X104950000Y-51100000D03*
%TD*%
%TO.C,C4*%
X114450000Y-63500000D03*
X112550000Y-63500000D03*
%TD*%
D13*
%TO.C,Q5*%
X111560000Y-120600000D03*
X109640000Y-120600000D03*
X110600000Y-122700000D03*
%TD*%
D11*
%TO.C,R14*%
X107337500Y-63750000D03*
X109162500Y-63750000D03*
%TD*%
D49*
%TO.C,IC6*%
X143550000Y-73200000D03*
D50*
X149800000Y-75500000D03*
D49*
X143550000Y-77800000D03*
%TD*%
D13*
%TO.C,Q10*%
X112060000Y-73700000D03*
X110140000Y-73700000D03*
X111100000Y-75800000D03*
%TD*%
D16*
%TO.C,C7*%
X111750000Y-51200000D03*
X113650000Y-51200000D03*
%TD*%
M02*
