%TF.GenerationSoftware,KiCad,Pcbnew,8.0.3*%
%TF.CreationDate,2024-07-04T13:58:53+02:00*%
%TF.ProjectId,ESPHome AIO,45535048-6f6d-4652-9041-494f2e6b6963,rev?*%
%TF.SameCoordinates,Original*%
%TF.FileFunction,Soldermask,Top*%
%TF.FilePolarity,Negative*%
%FSLAX46Y46*%
G04 Gerber Fmt 4.6, Leading zero omitted, Abs format (unit mm)*
G04 Created by KiCad (PCBNEW 8.0.3) date 2024-07-04 13:58:53*
%MOMM*%
%LPD*%
G01*
G04 APERTURE LIST*
G04 Aperture macros list*
%AMRoundRect*
0 Rectangle with rounded corners*
0 $1 Rounding radius*
0 $2 $3 $4 $5 $6 $7 $8 $9 X,Y pos of 4 corners*
0 Add a 4 corners polygon primitive as box body*
4,1,4,$2,$3,$4,$5,$6,$7,$8,$9,$2,$3,0*
0 Add four circle primitives for the rounded corners*
1,1,$1+$1,$2,$3*
1,1,$1+$1,$4,$5*
1,1,$1+$1,$6,$7*
1,1,$1+$1,$8,$9*
0 Add four rect primitives between the rounded corners*
20,1,$1+$1,$2,$3,$4,$5,0*
20,1,$1+$1,$4,$5,$6,$7,0*
20,1,$1+$1,$6,$7,$8,$9,0*
20,1,$1+$1,$8,$9,$2,$3,0*%
%AMFreePoly0*
4,1,6,1.000000,0.000000,0.500000,-0.750000,-0.500000,-0.750000,-0.500000,0.750000,0.500000,0.750000,1.000000,0.000000,1.000000,0.000000,$1*%
%AMFreePoly1*
4,1,6,0.500000,-0.750000,-0.650000,-0.750000,-0.150000,0.000000,-0.650000,0.750000,0.500000,0.750000,0.500000,-0.750000,0.500000,-0.750000,$1*%
G04 Aperture macros list end*
%ADD10R,0.600000X1.100000*%
%ADD11RoundRect,0.250000X-0.262500X-0.450000X0.262500X-0.450000X0.262500X0.450000X-0.262500X0.450000X0*%
%ADD12R,1.100000X0.500000*%
%ADD13RoundRect,0.250000X-0.450000X0.262500X-0.450000X-0.262500X0.450000X-0.262500X0.450000X0.262500X0*%
%ADD14R,1.050000X0.600000*%
%ADD15R,1.700000X1.700000*%
%ADD16O,1.700000X1.700000*%
%ADD17R,0.500000X0.470000*%
%ADD18R,0.550000X0.470000*%
%ADD19R,1.850000X2.700000*%
%ADD20RoundRect,0.243750X-0.456250X0.243750X-0.456250X-0.243750X0.456250X-0.243750X0.456250X0.243750X0*%
%ADD21RoundRect,0.250000X0.262500X0.450000X-0.262500X0.450000X-0.262500X-0.450000X0.262500X-0.450000X0*%
%ADD22RoundRect,0.250000X-0.250000X-0.475000X0.250000X-0.475000X0.250000X0.475000X-0.250000X0.475000X0*%
%ADD23RoundRect,0.250000X0.450000X-0.450000X0.450000X0.450000X-0.450000X0.450000X-0.450000X-0.450000X0*%
%ADD24C,1.400000*%
%ADD25C,1.100000*%
%ADD26R,2.030000X1.730000*%
%ADD27O,2.030000X1.730000*%
%ADD28RoundRect,0.250000X0.475000X-0.250000X0.475000X0.250000X-0.475000X0.250000X-0.475000X-0.250000X0*%
%ADD29R,0.550000X0.200000*%
%ADD30R,0.200000X0.550000*%
%ADD31R,0.350000X0.200000*%
%ADD32R,0.200000X0.350000*%
%ADD33R,2.720000X2.650000*%
%ADD34R,1.530000X2.650000*%
%ADD35R,0.200000X1.100000*%
%ADD36R,0.600000X0.200000*%
%ADD37R,0.650000X2.000000*%
%ADD38R,3.200000X2.390000*%
%ADD39RoundRect,0.250000X0.450000X-0.262500X0.450000X0.262500X-0.450000X0.262500X-0.450000X-0.262500X0*%
%ADD40C,2.800000*%
%ADD41R,0.470000X0.500000*%
%ADD42R,0.470000X0.550000*%
%ADD43R,2.700000X1.850000*%
%ADD44RoundRect,0.250000X1.000000X0.650000X-1.000000X0.650000X-1.000000X-0.650000X1.000000X-0.650000X0*%
%ADD45RoundRect,0.093750X0.093750X0.106250X-0.093750X0.106250X-0.093750X-0.106250X0.093750X-0.106250X0*%
%ADD46R,1.000000X1.600000*%
%ADD47FreePoly0,0.000000*%
%ADD48FreePoly1,0.000000*%
%ADD49R,0.700000X0.300000*%
%ADD50R,1.000000X1.700000*%
%ADD51R,0.600000X1.050000*%
%ADD52FreePoly0,270.000000*%
%ADD53FreePoly1,270.000000*%
%ADD54RoundRect,0.243750X0.456250X-0.243750X0.456250X0.243750X-0.456250X0.243750X-0.456250X-0.243750X0*%
%ADD55C,4.300000*%
%ADD56RoundRect,0.249999X0.790001X1.550001X-0.790001X1.550001X-0.790001X-1.550001X0.790001X-1.550001X0*%
%ADD57O,2.080000X3.600000*%
%ADD58C,2.000000*%
%ADD59C,0.650000*%
%ADD60R,0.600000X1.240000*%
%ADD61R,0.300000X1.240000*%
%ADD62O,1.000000X2.100000*%
%ADD63O,1.000000X1.800000*%
%ADD64RoundRect,0.250000X0.250000X0.475000X-0.250000X0.475000X-0.250000X-0.475000X0.250000X-0.475000X0*%
%ADD65R,4.240000X3.810000*%
%ADD66RoundRect,0.250000X-0.475000X0.250000X-0.475000X-0.250000X0.475000X-0.250000X0.475000X0.250000X0*%
%ADD67R,3.500000X1.600000*%
%ADD68R,9.750000X12.200000*%
%ADD69R,3.500000X3.500000*%
%ADD70RoundRect,0.750000X-1.000000X0.750000X-1.000000X-0.750000X1.000000X-0.750000X1.000000X0.750000X0*%
%ADD71RoundRect,0.875000X-0.875000X0.875000X-0.875000X-0.875000X0.875000X-0.875000X0.875000X0.875000X0*%
%ADD72R,0.900000X1.500000*%
%ADD73R,1.500000X0.900000*%
%ADD74R,0.900000X0.900000*%
%ADD75C,8.600000*%
%ADD76R,1.450000X0.450000*%
%ADD77RoundRect,0.250000X0.600000X0.750000X-0.600000X0.750000X-0.600000X-0.750000X0.600000X-0.750000X0*%
%ADD78O,1.700000X2.000000*%
%ADD79RoundRect,0.249999X-0.790001X-1.550001X0.790001X-1.550001X0.790001X1.550001X-0.790001X1.550001X0*%
%ADD80R,1.200000X1.200000*%
%ADD81R,2.500000X1.500000*%
%ADD82R,7.000000X7.000000*%
G04 APERTURE END LIST*
D10*
%TO.C,D9*%
X150750000Y-56300000D03*
X152650000Y-56300000D03*
X151700000Y-54100000D03*
%TD*%
D11*
%TO.C,R5*%
X156987500Y-120100000D03*
X158812500Y-120100000D03*
%TD*%
D12*
%TO.C,D6*%
X167950000Y-111100000D03*
X170250000Y-111100000D03*
%TD*%
D13*
%TO.C,R1*%
X116350000Y-106287500D03*
X116350000Y-108112500D03*
%TD*%
%TO.C,R25*%
X153100000Y-88937500D03*
X153100000Y-90762500D03*
%TD*%
%TO.C,R15*%
X100000000Y-58037500D03*
X100000000Y-59862500D03*
%TD*%
D14*
%TO.C,IC7*%
X148200000Y-80950000D03*
X148200000Y-82850000D03*
X150400000Y-81900000D03*
%TD*%
D15*
%TO.C,J3*%
X152060000Y-46400000D03*
D16*
X154600000Y-46400000D03*
X157140000Y-46400000D03*
X159680000Y-46400000D03*
X162220000Y-46400000D03*
%TD*%
D15*
%TO.C,J1*%
X179220000Y-105560000D03*
D16*
X179220000Y-108100000D03*
X176680000Y-105560000D03*
X176680000Y-108100000D03*
X174140000Y-105560000D03*
X174140000Y-108100000D03*
X171600000Y-105560000D03*
X171600000Y-108100000D03*
X169060000Y-105560000D03*
X169060000Y-108100000D03*
X166520000Y-105560000D03*
X166520000Y-108100000D03*
X163980000Y-105560000D03*
X163980000Y-108100000D03*
X161440000Y-105560000D03*
X161440000Y-108100000D03*
X158900000Y-105560000D03*
X158900000Y-108100000D03*
X156360000Y-105560000D03*
X156360000Y-108100000D03*
X153820000Y-105560000D03*
X153820000Y-108100000D03*
X151280000Y-105560000D03*
X151280000Y-108100000D03*
%TD*%
D11*
%TO.C,R21*%
X110087500Y-71200000D03*
X111912500Y-71200000D03*
%TD*%
D17*
%TO.C,Q6*%
X116875000Y-123150000D03*
X116875000Y-122500000D03*
X116875000Y-121850000D03*
X116875000Y-121200000D03*
D18*
X114000000Y-121200000D03*
X114000000Y-121850000D03*
X114000000Y-122500000D03*
X114000000Y-123150000D03*
D19*
X115200000Y-122175000D03*
%TD*%
D11*
%TO.C,R33*%
X101587500Y-67800000D03*
X103412500Y-67800000D03*
%TD*%
D20*
%TO.C,D8*%
X138200000Y-61625000D03*
X138200000Y-63500000D03*
%TD*%
D21*
%TO.C,R27*%
X143462500Y-83437500D03*
X141637500Y-83437500D03*
%TD*%
D13*
%TO.C,R3*%
X158600000Y-82687500D03*
X158600000Y-84512500D03*
%TD*%
D22*
%TO.C,C6*%
X107550000Y-54900000D03*
X109450000Y-54900000D03*
%TD*%
D23*
%TO.C,SW4*%
X99500000Y-119300000D03*
D24*
X99500000Y-116800000D03*
X99500000Y-114300000D03*
X102800000Y-119300000D03*
X102800000Y-116800000D03*
X102800000Y-114300000D03*
%TD*%
D25*
%TO.C,M4*%
X174215000Y-121995000D03*
D26*
X176375000Y-127075000D03*
D27*
X176375000Y-124535000D03*
X176375000Y-121995000D03*
X176375000Y-119455000D03*
%TD*%
D28*
%TO.C,C12*%
X139600000Y-78850000D03*
X139600000Y-76950000D03*
%TD*%
%TO.C,C3*%
X102050000Y-58500000D03*
X102050000Y-56600000D03*
%TD*%
D25*
%TO.C,M5*%
X174215000Y-133295000D03*
D26*
X176375000Y-138375000D03*
D27*
X176375000Y-135835000D03*
X176375000Y-133295000D03*
X176375000Y-130755000D03*
%TD*%
D29*
%TO.C,IC4*%
X104475000Y-58475000D03*
X104475000Y-58875000D03*
X104475000Y-59275000D03*
X104475000Y-59675000D03*
X104475000Y-60075000D03*
X104475000Y-60475000D03*
D30*
X105000000Y-61400000D03*
X105400000Y-61400000D03*
X105800000Y-61400000D03*
X106200000Y-61400000D03*
X106600000Y-61400000D03*
X107000000Y-61400000D03*
X107400000Y-61400000D03*
X107800000Y-61400000D03*
X108200000Y-61400000D03*
X108600000Y-61400000D03*
X109000000Y-61400000D03*
X109400000Y-61400000D03*
X109800000Y-61400000D03*
D31*
X110425000Y-60575000D03*
X110425000Y-60125000D03*
X110425000Y-59675000D03*
X110425000Y-59275000D03*
X110425000Y-58825000D03*
X110425000Y-58375000D03*
D30*
X109800000Y-57550000D03*
X109400000Y-57550000D03*
X109000000Y-57550000D03*
X108600000Y-57550000D03*
X108200000Y-57550000D03*
X107800000Y-57550000D03*
D32*
X107399000Y-57450000D03*
X106999000Y-57450000D03*
X106599000Y-57450000D03*
X106199000Y-57450000D03*
D30*
X105800000Y-57550000D03*
X105400000Y-57550000D03*
X105000000Y-57550000D03*
D33*
X106435000Y-59475000D03*
D34*
X108960000Y-59475000D03*
D35*
X110149000Y-60125000D03*
X110150000Y-58825000D03*
D36*
X107199000Y-57725000D03*
X106399000Y-57725000D03*
%TD*%
D37*
%TO.C,IC1*%
X164135000Y-62475000D03*
X165405000Y-62475000D03*
X166675000Y-62475000D03*
X167945000Y-62475000D03*
X167945000Y-57525000D03*
X166675000Y-57525000D03*
X165405000Y-57525000D03*
X164135000Y-57525000D03*
D38*
X166040000Y-60000000D03*
%TD*%
D15*
%TO.C,JP3*%
X153030000Y-86150000D03*
D16*
X150490000Y-86150000D03*
X147950000Y-86150000D03*
%TD*%
D39*
%TO.C,R29*%
X123625000Y-86362500D03*
X123625000Y-84537500D03*
%TD*%
D40*
%TO.C,TP5*%
X140300000Y-108100000D03*
%TD*%
D13*
%TO.C,R28*%
X147900000Y-88937500D03*
X147900000Y-90762500D03*
%TD*%
%TO.C,R4*%
X160600000Y-81287500D03*
X160600000Y-83112500D03*
%TD*%
D41*
%TO.C,Q1*%
X163200000Y-117700000D03*
X162550000Y-117700000D03*
X161900000Y-117700000D03*
X161250000Y-117700000D03*
D42*
X161250000Y-120575000D03*
X161900000Y-120575000D03*
X162550000Y-120575000D03*
X163200000Y-120575000D03*
D43*
X162225000Y-119375000D03*
%TD*%
D44*
%TO.C,D1*%
X117300000Y-60650000D03*
X113300000Y-60650000D03*
%TD*%
D11*
%TO.C,R40*%
X141487500Y-61700000D03*
X143312500Y-61700000D03*
%TD*%
D45*
%TO.C,U1*%
X113887500Y-58150000D03*
X113887500Y-57500000D03*
X113887500Y-56850000D03*
X112112500Y-56850000D03*
X112112500Y-57500000D03*
X112112500Y-58150000D03*
D46*
X113000000Y-57500000D03*
%TD*%
D21*
%TO.C,R37*%
X100012500Y-55650000D03*
X98187500Y-55650000D03*
%TD*%
D15*
%TO.C,J13*%
X93700000Y-96600000D03*
D16*
X93700000Y-99140000D03*
X93700000Y-101680000D03*
X93700000Y-104220000D03*
%TD*%
D13*
%TO.C,R22*%
X107700000Y-73387500D03*
X107700000Y-75212500D03*
%TD*%
D47*
%TO.C,JP1*%
X144350000Y-69500000D03*
D48*
X145800000Y-69500000D03*
%TD*%
D23*
%TO.C,SW8*%
X99500000Y-97900000D03*
D24*
X99500000Y-95400000D03*
X99500000Y-92900000D03*
X102800000Y-97900000D03*
X102800000Y-95400000D03*
X102800000Y-92900000D03*
%TD*%
D13*
%TO.C,R24*%
X139375000Y-82637500D03*
X139375000Y-84462500D03*
%TD*%
%TO.C,R16*%
X100000000Y-61487500D03*
X100000000Y-63312500D03*
%TD*%
D49*
%TO.C,IC9*%
X118725000Y-86362500D03*
X118725000Y-86862500D03*
X118725000Y-87362500D03*
X118725000Y-87862500D03*
X120825000Y-87862500D03*
X120825000Y-87362500D03*
X120825000Y-86862500D03*
X120825000Y-86362500D03*
D50*
X119775000Y-87112500D03*
%TD*%
D51*
%TO.C,Q8*%
X152300000Y-120800000D03*
X150400000Y-120800000D03*
X151350000Y-123000000D03*
%TD*%
D22*
%TO.C,C9*%
X111750000Y-53200000D03*
X113650000Y-53200000D03*
%TD*%
D11*
%TO.C,R32*%
X122562500Y-88550000D03*
X124387500Y-88550000D03*
%TD*%
%TO.C,R9*%
X109727500Y-118300000D03*
X111552500Y-118300000D03*
%TD*%
D40*
%TO.C,TP1*%
X160200000Y-87400000D03*
%TD*%
D52*
%TO.C,JP2*%
X137050000Y-79075000D03*
D53*
X137050000Y-80525000D03*
%TD*%
D11*
%TO.C,R36*%
X101387500Y-65300000D03*
X103212500Y-65300000D03*
%TD*%
%TO.C,R8*%
X119837500Y-118300000D03*
X121662500Y-118300000D03*
%TD*%
%TO.C,R13*%
X146737500Y-123000000D03*
X148562500Y-123000000D03*
%TD*%
D54*
%TO.C,D4*%
X145400000Y-83375000D03*
X145400000Y-81500000D03*
%TD*%
D11*
%TO.C,R7*%
X130037500Y-118300000D03*
X131862500Y-118300000D03*
%TD*%
D22*
%TO.C,C13*%
X118350000Y-84000000D03*
X120250000Y-84000000D03*
%TD*%
D15*
%TO.C,JP4*%
X142440000Y-116000000D03*
D16*
X139900000Y-116000000D03*
%TD*%
D23*
%TO.C,SW6*%
X99500000Y-129200000D03*
D24*
X99500000Y-126700000D03*
X99500000Y-124200000D03*
X102800000Y-129200000D03*
X102800000Y-126700000D03*
X102800000Y-124200000D03*
%TD*%
D55*
%TO.C,H4*%
X184900000Y-135700000D03*
%TD*%
D13*
%TO.C,R18*%
X92811768Y-62737500D03*
X92811768Y-64562500D03*
%TD*%
D41*
%TO.C,Q2*%
X163200000Y-123125000D03*
X162550000Y-123125000D03*
X161900000Y-123125000D03*
X161250000Y-123125000D03*
D42*
X161250000Y-126000000D03*
X161900000Y-126000000D03*
X162550000Y-126000000D03*
X163200000Y-126000000D03*
D43*
X162225000Y-124800000D03*
%TD*%
D13*
%TO.C,R17*%
X92811768Y-59237500D03*
X92811768Y-61062500D03*
%TD*%
D23*
%TO.C,SW5*%
X99500000Y-86400000D03*
D24*
X99500000Y-83900000D03*
X99500000Y-81400000D03*
X102800000Y-86400000D03*
X102800000Y-83900000D03*
X102800000Y-81400000D03*
%TD*%
D54*
%TO.C,D2*%
X95711768Y-61087500D03*
X95711768Y-59212500D03*
%TD*%
D20*
%TO.C,D5*%
X126250000Y-87712500D03*
X126250000Y-89587500D03*
%TD*%
D17*
%TO.C,Q4*%
X127675000Y-123150000D03*
X127675000Y-122500000D03*
X127675000Y-121850000D03*
X127675000Y-121200000D03*
D18*
X124800000Y-121200000D03*
X124800000Y-121850000D03*
X124800000Y-122500000D03*
X124800000Y-123150000D03*
D19*
X126000000Y-122175000D03*
%TD*%
D40*
%TO.C,TP4*%
X130700000Y-85500000D03*
%TD*%
D56*
%TO.C,M1*%
X175940000Y-51377500D03*
D57*
X170860000Y-51377500D03*
%TD*%
D21*
%TO.C,R39*%
X173462500Y-64600000D03*
X171637500Y-64600000D03*
%TD*%
D13*
%TO.C,R31*%
X116275000Y-88537500D03*
X116275000Y-90362500D03*
%TD*%
D57*
%TO.C,J8*%
X121410000Y-51427500D03*
D56*
X126490000Y-51427500D03*
%TD*%
D55*
%TO.C,H1*%
X184900000Y-45700000D03*
%TD*%
D49*
%TO.C,IC8*%
X141950000Y-86112500D03*
X141950000Y-86612500D03*
X141950000Y-87112500D03*
X141950000Y-87612500D03*
X144050000Y-87612500D03*
X144050000Y-87112500D03*
X144050000Y-86612500D03*
X144050000Y-86112500D03*
D50*
X143000000Y-86862500D03*
%TD*%
D23*
%TO.C,SW10*%
X99500000Y-107800000D03*
D24*
X99500000Y-105300000D03*
X99500000Y-102800000D03*
X102800000Y-107800000D03*
X102800000Y-105300000D03*
X102800000Y-102800000D03*
%TD*%
D58*
%TO.C,SW7*%
X176250000Y-63850000D03*
X176250000Y-57350000D03*
X180750000Y-63850000D03*
X180750000Y-57350000D03*
%TD*%
%TO.C,SW2*%
X119300000Y-97050000D03*
X125800000Y-97050000D03*
X119300000Y-101550000D03*
X125800000Y-101550000D03*
%TD*%
D11*
%TO.C,R35*%
X97837500Y-65300000D03*
X99662500Y-65300000D03*
%TD*%
D59*
%TO.C,J7*%
X111590000Y-47655000D03*
X105810000Y-47655000D03*
D60*
X111900000Y-48775000D03*
X111100000Y-48775000D03*
D61*
X109950000Y-48775000D03*
X108950000Y-48775000D03*
X108450000Y-48775000D03*
X107450000Y-48775000D03*
D60*
X106300000Y-48775000D03*
X105500000Y-48775000D03*
X105500000Y-48775000D03*
X106300000Y-48775000D03*
D61*
X106950000Y-48775000D03*
X107950000Y-48775000D03*
X109450000Y-48775000D03*
X110450000Y-48775000D03*
D60*
X111100000Y-48775000D03*
X111900000Y-48775000D03*
D62*
X113020000Y-48175000D03*
D63*
X113020000Y-43975000D03*
D62*
X104380000Y-48175000D03*
D63*
X104380000Y-43975000D03*
%TD*%
D13*
%TO.C,R30*%
X116275000Y-85062500D03*
X116275000Y-86887500D03*
%TD*%
D64*
%TO.C,C14*%
X179450000Y-66500000D03*
X177550000Y-66500000D03*
%TD*%
D54*
%TO.C,D3*%
X107300000Y-71537500D03*
X107300000Y-69662500D03*
%TD*%
D65*
%TO.C,F1*%
X125115000Y-62300000D03*
X131485000Y-62300000D03*
%TD*%
D22*
%TO.C,C5*%
X111750000Y-55200000D03*
X113650000Y-55200000D03*
%TD*%
D17*
%TO.C,Q3*%
X133075000Y-123150000D03*
X133075000Y-122500000D03*
X133075000Y-121850000D03*
X133075000Y-121200000D03*
D18*
X130200000Y-121200000D03*
X130200000Y-121850000D03*
X130200000Y-122500000D03*
X130200000Y-123150000D03*
D19*
X131400000Y-122175000D03*
%TD*%
D17*
%TO.C,Q7*%
X111400000Y-123150000D03*
X111400000Y-122500000D03*
X111400000Y-121850000D03*
X111400000Y-121200000D03*
D18*
X108525000Y-121200000D03*
X108525000Y-121850000D03*
X108525000Y-122500000D03*
X108525000Y-123150000D03*
D19*
X109725000Y-122175000D03*
%TD*%
D66*
%TO.C,C10*%
X136450000Y-73250000D03*
X136450000Y-75150000D03*
%TD*%
D67*
%TO.C,IC5*%
X132500000Y-78230000D03*
X132500000Y-73150000D03*
D68*
X122225000Y-75690000D03*
%TD*%
D15*
%TO.C,J2*%
X144800000Y-101200000D03*
D16*
X144800000Y-103740000D03*
X144800000Y-106280000D03*
X144800000Y-108820000D03*
%TD*%
D11*
%TO.C,R10*%
X125087500Y-118300000D03*
X126912500Y-118300000D03*
%TD*%
D69*
%TO.C,J9*%
X139000000Y-54800000D03*
D70*
X139000000Y-48800000D03*
D71*
X134300000Y-51800000D03*
%TD*%
D15*
%TO.C,J10*%
X93700000Y-75200000D03*
D16*
X93700000Y-77740000D03*
X93700000Y-80280000D03*
X93700000Y-82820000D03*
%TD*%
D21*
%TO.C,R34*%
X155762500Y-114700000D03*
X153937500Y-114700000D03*
%TD*%
D58*
%TO.C,SW1*%
X119300000Y-106250000D03*
X125800000Y-106250000D03*
X119300000Y-110750000D03*
X125800000Y-110750000D03*
%TD*%
D72*
%TO.C,IC2*%
X182300000Y-69950000D03*
X181030000Y-69950000D03*
X179760000Y-69950000D03*
X178490000Y-69950000D03*
X177220000Y-69950000D03*
X175950000Y-69950000D03*
X174680000Y-69950000D03*
X173410000Y-69950000D03*
X172140000Y-69950000D03*
X170870000Y-69950000D03*
X169600000Y-69950000D03*
X168330000Y-69950000D03*
X167060000Y-69950000D03*
X165790000Y-69950000D03*
D73*
X164540000Y-71715000D03*
X164540000Y-72985000D03*
X164540000Y-74255000D03*
X164540000Y-75525000D03*
X164540000Y-76795000D03*
X164540000Y-78065000D03*
X164540000Y-79335000D03*
X164540000Y-80605000D03*
X164540000Y-81875000D03*
X164540000Y-83145000D03*
X164540000Y-84415000D03*
X164540000Y-85685000D03*
D72*
X165790000Y-87450000D03*
X167060000Y-87450000D03*
X168330000Y-87450000D03*
X169600000Y-87450000D03*
X170870000Y-87450000D03*
X172140000Y-87450000D03*
X173410000Y-87450000D03*
X174680000Y-87450000D03*
X175950000Y-87450000D03*
X177220000Y-87450000D03*
X178490000Y-87450000D03*
X179760000Y-87450000D03*
X181030000Y-87450000D03*
X182300000Y-87450000D03*
D74*
X174580000Y-77200000D03*
X175980000Y-77200000D03*
X175980000Y-75800000D03*
X174580000Y-75800000D03*
X173180000Y-75800000D03*
X173180000Y-77200000D03*
X173180000Y-78600000D03*
X174580000Y-78600000D03*
X175980000Y-78600000D03*
%TD*%
D39*
%TO.C,R6*%
X159800000Y-114212500D03*
X159800000Y-112387500D03*
%TD*%
D51*
%TO.C,Q12*%
X111900000Y-73750000D03*
X110000000Y-73750000D03*
X110950000Y-75950000D03*
%TD*%
D21*
%TO.C,R12*%
X152362500Y-118700000D03*
X150537500Y-118700000D03*
%TD*%
D75*
%TO.C,H3*%
X95300000Y-135400000D03*
%TD*%
D25*
%TO.C,M2*%
X166915000Y-121995000D03*
D26*
X169075000Y-127075000D03*
D27*
X169075000Y-124535000D03*
X169075000Y-121995000D03*
X169075000Y-119455000D03*
%TD*%
D13*
%TO.C,R23*%
X139375000Y-86137500D03*
X139375000Y-87962500D03*
%TD*%
D11*
%TO.C,R20*%
X107287500Y-67200000D03*
X109112500Y-67200000D03*
%TD*%
D76*
%TO.C,IC3*%
X169225000Y-115075000D03*
X169225000Y-114425000D03*
X169225000Y-113775000D03*
X169225000Y-113125000D03*
X164775000Y-113125000D03*
X164775000Y-113775000D03*
X164775000Y-114425000D03*
X164775000Y-115075000D03*
%TD*%
D13*
%TO.C,R2*%
X116350000Y-97087500D03*
X116350000Y-98912500D03*
%TD*%
D15*
%TO.C,J11*%
X93700000Y-118100000D03*
D16*
X93700000Y-120640000D03*
X93700000Y-123180000D03*
X93700000Y-125720000D03*
%TD*%
D64*
%TO.C,C1*%
X114450000Y-65550000D03*
X112550000Y-65550000D03*
%TD*%
D23*
%TO.C,SW3*%
X99500000Y-76500000D03*
D24*
X99500000Y-74000000D03*
X99500000Y-71500000D03*
X102800000Y-76500000D03*
X102800000Y-74000000D03*
X102800000Y-71500000D03*
%TD*%
D77*
%TO.C,J4*%
X177700000Y-114500000D03*
D78*
X175200000Y-114500000D03*
%TD*%
D14*
%TO.C,Q9*%
X128700000Y-88900000D03*
X128700000Y-90800000D03*
X130900000Y-89850000D03*
%TD*%
D79*
%TO.C,J6*%
X146420000Y-129822500D03*
D57*
X151500000Y-129822500D03*
X156580000Y-129822500D03*
%TD*%
D17*
%TO.C,Q5*%
X122275000Y-123150000D03*
X122275000Y-122500000D03*
X122275000Y-121850000D03*
X122275000Y-121200000D03*
D18*
X119400000Y-121200000D03*
X119400000Y-121850000D03*
X119400000Y-122500000D03*
X119400000Y-123150000D03*
D19*
X120600000Y-122175000D03*
%TD*%
D21*
%TO.C,R38*%
X96362500Y-55650000D03*
X94537500Y-55650000D03*
%TD*%
D40*
%TO.C,TP3*%
X140000000Y-66800000D03*
%TD*%
D79*
%TO.C,J5*%
X110600000Y-129822500D03*
D57*
X115680000Y-129822500D03*
X120760000Y-129822500D03*
X125840000Y-129822500D03*
X130920000Y-129822500D03*
X136000000Y-129822500D03*
%TD*%
D14*
%TO.C,Q11*%
X93461768Y-66400000D03*
X93461768Y-68300000D03*
X95661768Y-67350000D03*
%TD*%
D75*
%TO.C,H2*%
X95100000Y-46100000D03*
%TD*%
D11*
%TO.C,R26*%
X141637500Y-81437500D03*
X143462500Y-81437500D03*
%TD*%
D66*
%TO.C,C11*%
X139650000Y-73250000D03*
X139650000Y-75150000D03*
%TD*%
D80*
%TO.C,D7*%
X144150000Y-64950000D03*
X146950000Y-64950000D03*
%TD*%
D64*
%TO.C,C2*%
X114450000Y-67600000D03*
X112550000Y-67600000D03*
%TD*%
D13*
%TO.C,R19*%
X95711768Y-62837500D03*
X95711768Y-64662500D03*
%TD*%
D11*
%TO.C,R11*%
X114887500Y-118300000D03*
X116712500Y-118300000D03*
%TD*%
D64*
%TO.C,C8*%
X106850000Y-51100000D03*
X104950000Y-51100000D03*
%TD*%
%TO.C,C4*%
X114450000Y-63500000D03*
X112550000Y-63500000D03*
%TD*%
D40*
%TO.C,TP2*%
X158150000Y-91550000D03*
%TD*%
D11*
%TO.C,R14*%
X107337500Y-63750000D03*
X109162500Y-63750000D03*
%TD*%
D81*
%TO.C,IC6*%
X143550000Y-73200000D03*
D82*
X149800000Y-75500000D03*
D81*
X143550000Y-77800000D03*
%TD*%
D11*
%TO.C,R27*%
X97837500Y-67800000D03*
X99662500Y-67800000D03*
%TD*%
D25*
%TO.C,M3*%
X166915000Y-133295000D03*
D26*
X169075000Y-138375000D03*
D27*
X169075000Y-135835000D03*
X169075000Y-133295000D03*
X169075000Y-130755000D03*
%TD*%
D22*
%TO.C,C7*%
X111750000Y-51200000D03*
X113650000Y-51200000D03*
%TD*%
M02*
