M48
; DRILL file {KiCad 7.0.10} date Mon May 27 00:37:53 2024
; FORMAT={-:-/ absolute / metric / decimal}
; #@! TF.CreationDate,2024-05-27T00:37:53+02:00
; #@! TF.GenerationSoftware,Kicad,Pcbnew,7.0.10
; #@! TF.FileFunction,Plated,1,2,PTH
FMAT,2
METRIC
; #@! TA.AperFunction,Plated,PTH,ViaDrill
T1C0.200
; #@! TA.AperFunction,Plated,PTH,ViaDrill
T2C0.300
; #@! TA.AperFunction,Plated,PTH,ViaDrill
T3C0.400
; #@! TA.AperFunction,Plated,PTH,ComponentDrill
T4C0.600
; #@! TA.AperFunction,Plated,PTH,ComponentDrill
T5C0.900
; #@! TA.AperFunction,Plated,PTH,ComponentDrill
T6C1.000
; #@! TA.AperFunction,Plated,PTH,ComponentDrill
T7C1.020
; #@! TA.AperFunction,Plated,PTH,ComponentDrill
T8C1.100
; #@! TA.AperFunction,Plated,PTH,ComponentDrill
T9C1.170
; #@! TA.AperFunction,Plated,PTH,ComponentDrill
T10C1.400
; #@! TA.AperFunction,Plated,PTH,ComponentDrill
T11C3.200
; #@! TA.AperFunction,Plated,PTH,ComponentDrill
T12C4.300
%
G90
G05
T1
X103.65Y-58.45
X104.6Y-62.1
X105.6Y-59.4
X106.0Y-56.5
X106.4Y-56.9
X106.4Y-63.75
X106.5Y-58.6
X106.5Y-59.4
X106.5Y-60.3
X106.84Y-52.5
X107.0Y-44.5
X107.0Y-45.1
X107.0Y-56.51
X107.4Y-56.9
X107.4Y-59.4
X107.85Y-47.64
X107.85Y-50.117
X108.167Y-44.5
X108.167Y-45.1
X108.55Y-50.117
X108.95Y-47.64
X109.0Y-58.5
X109.0Y-59.5
X109.0Y-60.5
X109.25Y-56.6
X109.333Y-44.5
X109.333Y-45.1
X109.84Y-56.21
X110.5Y-44.5
X110.5Y-45.1
X110.78Y-56.88
X110.9Y-50.4
X110.9Y-51.0
X110.9Y-52.8
X110.9Y-53.5
X110.9Y-54.2
X110.9Y-54.9
X110.9Y-55.6
X111.0Y-57.5
X111.0Y-58.1
X111.0Y-58.7
X111.18Y-56.5
X111.6Y-57.5
X111.6Y-58.1
X111.6Y-58.7
X112.4Y-94.4
X113.425Y-93.725
X117.4Y-89.6
X118.725Y-89.622
X119.775Y-85.5
X122.525Y-89.8
X125.45Y-95.175
X125.925Y-94.4
X140.575Y-87.5
X143.0Y-85.0
X144.06Y-89.45
X144.07Y-88.8
X144.85Y-89.43
X144.88Y-88.81
X145.2Y-87.0
X145.3Y-85.6
X146.05Y-84.75
X146.05Y-86.7
X146.9Y-81.05
X150.5Y-90.75
X154.075Y-94.375
X156.625Y-77.925
X159.5Y-80.8
X161.2Y-114.3
X163.5Y-113.5
X166.3Y-113.4
X168.5Y-72.875
X169.5Y-72.9
X170.475Y-72.95
X170.6Y-113.1
X171.375Y-72.875
X172.325Y-72.95
X173.25Y-73.2
X173.9Y-76.5
X173.9Y-77.9
X174.525Y-73.15
X175.3Y-76.5
X175.3Y-77.9
X175.3Y-102.3
X179.3Y-83.2
X179.4Y-84.5
T2
X101.3Y-63.3
X102.1Y-55.5
X104.5Y-122.5
X105.2Y-64.3
X105.3Y-79.649
X105.9Y-65.0
X106.3Y-80.5
X106.6Y-99.8
X106.9Y-88.2
X106.9Y-89.0
X107.7Y-103.4
X108.4Y-120.6
X109.2Y-73.7
X109.7Y-53.7
X113.5Y-120.6
X116.0Y-63.4
X116.0Y-64.3
X116.0Y-65.2
X116.0Y-66.1
X116.0Y-67.0
X116.0Y-67.9
X118.6Y-120.6
X121.7Y-84.0
X123.7Y-120.6
X128.7Y-120.6
X132.5Y-76.3
X138.1Y-75.1
X165.4Y-120.9
X166.6Y-86.1
X167.8Y-85.35
X182.3Y-89.7
T3
X92.9Y-67.2
X103.7Y-51.1
X135.5Y-70.1
X135.5Y-71.0
X135.5Y-71.9
X136.5Y-70.1
X136.5Y-71.0
X136.5Y-71.9
X142.9Y-66.7
X143.55Y-67.35
X146.75Y-121.4
X147.5Y-63.4
X147.9Y-75.6
X149.9Y-73.5
X149.9Y-75.6
X149.9Y-77.6
X151.8Y-75.6
X153.275Y-100.5
X153.3Y-96.4
X153.35Y-98.25
X157.0Y-118.6
X158.2Y-112.4
X160.6Y-124.7
X160.7Y-120.1
X162.6Y-81.8
X162.7Y-121.6
X164.35Y-66.35
X165.1Y-65.7
X165.575Y-123.8
X172.9Y-60.0
X173.94Y-60.0
X175.0Y-60.0
X177.3Y-57.6
X182.3Y-67.7
T5
X99.5Y-71.5
X99.5Y-74.0
X99.5Y-76.5
X99.5Y-81.4
X99.5Y-83.9
X99.5Y-86.4
X99.5Y-92.9
X99.5Y-95.4
X99.5Y-97.9
X99.5Y-102.8
X99.5Y-105.3
X99.5Y-107.8
X99.5Y-114.3
X99.5Y-116.8
X99.5Y-119.3
X99.5Y-124.2
X99.5Y-126.7
X99.5Y-129.2
X102.8Y-71.5
X102.8Y-74.0
X102.8Y-76.5
X102.8Y-81.4
X102.8Y-83.9
X102.8Y-86.4
X102.8Y-92.9
X102.8Y-95.4
X102.8Y-97.9
X102.8Y-102.8
X102.8Y-105.3
X102.8Y-107.8
X102.8Y-114.3
X102.8Y-116.8
X102.8Y-119.3
X102.8Y-124.2
X102.8Y-126.7
X102.8Y-129.2
T6
X93.7Y-75.2
X93.7Y-77.74
X93.7Y-80.28
X93.7Y-82.82
X93.7Y-96.6
X93.7Y-99.14
X93.7Y-101.68
X93.7Y-104.22
X93.7Y-118.1
X93.7Y-120.64
X93.7Y-123.18
X93.7Y-125.72
X144.8Y-101.2
X144.8Y-103.74
X144.8Y-106.28
X144.8Y-108.82
X147.95Y-86.15
X150.49Y-86.15
X151.28Y-105.56
X151.28Y-108.1
X152.06Y-46.4
X153.03Y-86.15
X153.82Y-105.56
X153.82Y-108.1
X154.6Y-46.4
X156.36Y-105.56
X156.36Y-108.1
X157.14Y-46.4
X158.9Y-105.56
X158.9Y-108.1
X159.68Y-46.4
X161.44Y-105.56
X161.44Y-108.1
X162.22Y-46.4
X163.98Y-105.56
X163.98Y-108.1
X166.52Y-105.56
X166.52Y-108.1
X169.06Y-105.56
X169.06Y-108.1
X171.6Y-105.56
X171.6Y-108.1
X174.14Y-105.56
X174.14Y-108.1
X175.2Y-114.5
X176.68Y-105.56
X176.68Y-108.1
X177.7Y-114.5
X179.22Y-105.56
X179.22Y-108.1
T7
X169.075Y-119.455
X169.075Y-121.995
X169.075Y-124.535
X169.075Y-127.075
X169.075Y-130.755
X169.075Y-133.295
X169.075Y-135.835
X169.075Y-138.375
X176.375Y-119.455
X176.375Y-121.995
X176.375Y-124.535
X176.375Y-127.075
X176.375Y-130.755
X176.375Y-133.295
X176.375Y-135.835
X176.375Y-138.375
T8
X119.3Y-97.05
X119.3Y-101.55
X119.3Y-106.25
X119.3Y-110.75
X125.8Y-97.05
X125.8Y-101.55
X125.8Y-106.25
X125.8Y-110.75
T9
X122.8Y-60.5
X122.8Y-65.5
X140.6Y-60.5
X140.6Y-65.5
T10
X110.6Y-129.822
X115.68Y-129.822
X120.76Y-129.822
X121.41Y-51.427
X125.84Y-129.822
X126.49Y-51.427
X130.92Y-129.822
X131.2Y-85.7
X136.0Y-129.822
X140.3Y-108.1
X146.3Y-59.2
X146.42Y-129.822
X151.5Y-129.822
X156.58Y-129.822
X158.15Y-91.55
X160.2Y-87.4
X170.86Y-51.377
X175.94Y-51.377
T11
X133.9Y-51.85
X138.7Y-49.05
X138.7Y-54.85
T12
X95.1Y-46.1
X95.3Y-135.4
T4
X104.38Y-44.375G85X104.38Y-43.575
G05
X104.38Y-48.725G85X104.38Y-47.625
G05
X113.02Y-44.375G85X113.02Y-43.575
G05
X113.02Y-48.725G85X113.02Y-47.625
G05
M30
