%TF.GenerationSoftware,KiCad,Pcbnew,7.0.10*%
%TF.CreationDate,2024-05-27T00:37:55+02:00*%
%TF.ProjectId,ESPHome AIO,45535048-6f6d-4652-9041-494f2e6b6963,rev?*%
%TF.SameCoordinates,Original*%
%TF.FileFunction,Drillmap*%
%TF.FilePolarity,Positive*%
%FSLAX45Y45*%
G04 Gerber Fmt 4.5, Leading zero omitted, Abs format (unit mm)*
G04 Created by KiCad (PCBNEW 7.0.10) date 2024-05-27 00:37:55*
%MOMM*%
%LPD*%
G01*
G04 APERTURE LIST*
%ADD10C,0.200000*%
%ADD11C,0.100000*%
%ADD12C,0.110000*%
%ADD13C,0.430000*%
G04 APERTURE END LIST*
D10*
X18990000Y-4570000D02*
X18990000Y-13570000D01*
X18490000Y-14070000D02*
G75*
G03*
X18990000Y-13570000I0J500000D01*
G01*
X18990000Y-4570000D02*
G75*
G03*
X18490000Y-4070000I-500000J0D01*
G01*
X8990000Y-13570000D02*
G75*
G03*
X9490000Y-14070000I500000J0D01*
G01*
X8990000Y-13570000D02*
X8990000Y-4570000D01*
X9490000Y-14070000D02*
X18490000Y-14070000D01*
X9490000Y-4070000D02*
X18490000Y-4070000D01*
X9490000Y-4070000D02*
G75*
G03*
X8990000Y-4570000I0J-500000D01*
G01*
D11*
X10548500Y-4733000D02*
X10613500Y-4798000D01*
X10613500Y-4733000D02*
X10548500Y-4798000D01*
X11126500Y-4733000D02*
X11191500Y-4798000D01*
X11191500Y-4733000D02*
X11126500Y-4798000D01*
D12*
X16746500Y-12199500D02*
G75*
G03*
X16636500Y-12199500I-55000J0D01*
G01*
X16636500Y-12199500D02*
G75*
G03*
X16746500Y-12199500I55000J0D01*
G01*
X16746500Y-13329500D02*
G75*
G03*
X16636500Y-13329500I-55000J0D01*
G01*
X16636500Y-13329500D02*
G75*
G03*
X16746500Y-13329500I55000J0D01*
G01*
X17476500Y-12199500D02*
G75*
G03*
X17366500Y-12199500I-55000J0D01*
G01*
X17366500Y-12199500D02*
G75*
G03*
X17476500Y-12199500I55000J0D01*
G01*
X17476500Y-13329500D02*
G75*
G03*
X17366500Y-13329500I-55000J0D01*
G01*
X17366500Y-13329500D02*
G75*
G03*
X17476500Y-13329500I55000J0D01*
G01*
D13*
X18490000Y-4355000D02*
X18490000Y-4785000D01*
X18275000Y-4570000D02*
X18705000Y-4570000D01*
X18490000Y-13355000D02*
X18490000Y-13785000D01*
X18275000Y-13570000D02*
X18705000Y-13570000D01*
D10*
X9240777Y-14391484D02*
X9240777Y-14191484D01*
X9240777Y-14191484D02*
X9288396Y-14191484D01*
X9288396Y-14191484D02*
X9316967Y-14201008D01*
X9316967Y-14201008D02*
X9336015Y-14220055D01*
X9336015Y-14220055D02*
X9345539Y-14239103D01*
X9345539Y-14239103D02*
X9355063Y-14277198D01*
X9355063Y-14277198D02*
X9355063Y-14305769D01*
X9355063Y-14305769D02*
X9345539Y-14343865D01*
X9345539Y-14343865D02*
X9336015Y-14362912D01*
X9336015Y-14362912D02*
X9316967Y-14381960D01*
X9316967Y-14381960D02*
X9288396Y-14391484D01*
X9288396Y-14391484D02*
X9240777Y-14391484D01*
X9440777Y-14391484D02*
X9440777Y-14258150D01*
X9440777Y-14296246D02*
X9450301Y-14277198D01*
X9450301Y-14277198D02*
X9459824Y-14267674D01*
X9459824Y-14267674D02*
X9478872Y-14258150D01*
X9478872Y-14258150D02*
X9497920Y-14258150D01*
X9564586Y-14391484D02*
X9564586Y-14258150D01*
X9564586Y-14191484D02*
X9555063Y-14201008D01*
X9555063Y-14201008D02*
X9564586Y-14210531D01*
X9564586Y-14210531D02*
X9574110Y-14201008D01*
X9574110Y-14201008D02*
X9564586Y-14191484D01*
X9564586Y-14191484D02*
X9564586Y-14210531D01*
X9688396Y-14391484D02*
X9669348Y-14381960D01*
X9669348Y-14381960D02*
X9659824Y-14362912D01*
X9659824Y-14362912D02*
X9659824Y-14191484D01*
X9793158Y-14391484D02*
X9774110Y-14381960D01*
X9774110Y-14381960D02*
X9764586Y-14362912D01*
X9764586Y-14362912D02*
X9764586Y-14191484D01*
X10021729Y-14391484D02*
X10021729Y-14191484D01*
X10021729Y-14191484D02*
X10088396Y-14334341D01*
X10088396Y-14334341D02*
X10155063Y-14191484D01*
X10155063Y-14191484D02*
X10155063Y-14391484D01*
X10336015Y-14391484D02*
X10336015Y-14286722D01*
X10336015Y-14286722D02*
X10326491Y-14267674D01*
X10326491Y-14267674D02*
X10307444Y-14258150D01*
X10307444Y-14258150D02*
X10269348Y-14258150D01*
X10269348Y-14258150D02*
X10250301Y-14267674D01*
X10336015Y-14381960D02*
X10316967Y-14391484D01*
X10316967Y-14391484D02*
X10269348Y-14391484D01*
X10269348Y-14391484D02*
X10250301Y-14381960D01*
X10250301Y-14381960D02*
X10240777Y-14362912D01*
X10240777Y-14362912D02*
X10240777Y-14343865D01*
X10240777Y-14343865D02*
X10250301Y-14324817D01*
X10250301Y-14324817D02*
X10269348Y-14315293D01*
X10269348Y-14315293D02*
X10316967Y-14315293D01*
X10316967Y-14315293D02*
X10336015Y-14305769D01*
X10431253Y-14258150D02*
X10431253Y-14458150D01*
X10431253Y-14267674D02*
X10450301Y-14258150D01*
X10450301Y-14258150D02*
X10488396Y-14258150D01*
X10488396Y-14258150D02*
X10507444Y-14267674D01*
X10507444Y-14267674D02*
X10516967Y-14277198D01*
X10516967Y-14277198D02*
X10526491Y-14296246D01*
X10526491Y-14296246D02*
X10526491Y-14353388D01*
X10526491Y-14353388D02*
X10516967Y-14372436D01*
X10516967Y-14372436D02*
X10507444Y-14381960D01*
X10507444Y-14381960D02*
X10488396Y-14391484D01*
X10488396Y-14391484D02*
X10450301Y-14391484D01*
X10450301Y-14391484D02*
X10431253Y-14381960D01*
X10612205Y-14372436D02*
X10621729Y-14381960D01*
X10621729Y-14381960D02*
X10612205Y-14391484D01*
X10612205Y-14391484D02*
X10602682Y-14381960D01*
X10602682Y-14381960D02*
X10612205Y-14372436D01*
X10612205Y-14372436D02*
X10612205Y-14391484D01*
X10612205Y-14267674D02*
X10621729Y-14277198D01*
X10621729Y-14277198D02*
X10612205Y-14286722D01*
X10612205Y-14286722D02*
X10602682Y-14277198D01*
X10602682Y-14277198D02*
X10612205Y-14267674D01*
X10612205Y-14267674D02*
X10612205Y-14286722D01*
D11*
X8915000Y-14687500D02*
X8980000Y-14752500D01*
X8980000Y-14687500D02*
X8915000Y-14752500D01*
D10*
X9278872Y-14611484D02*
X9297920Y-14611484D01*
X9297920Y-14611484D02*
X9316967Y-14621008D01*
X9316967Y-14621008D02*
X9326491Y-14630531D01*
X9326491Y-14630531D02*
X9336015Y-14649579D01*
X9336015Y-14649579D02*
X9345539Y-14687674D01*
X9345539Y-14687674D02*
X9345539Y-14735293D01*
X9345539Y-14735293D02*
X9336015Y-14773388D01*
X9336015Y-14773388D02*
X9326491Y-14792436D01*
X9326491Y-14792436D02*
X9316967Y-14801960D01*
X9316967Y-14801960D02*
X9297920Y-14811484D01*
X9297920Y-14811484D02*
X9278872Y-14811484D01*
X9278872Y-14811484D02*
X9259824Y-14801960D01*
X9259824Y-14801960D02*
X9250301Y-14792436D01*
X9250301Y-14792436D02*
X9240777Y-14773388D01*
X9240777Y-14773388D02*
X9231253Y-14735293D01*
X9231253Y-14735293D02*
X9231253Y-14687674D01*
X9231253Y-14687674D02*
X9240777Y-14649579D01*
X9240777Y-14649579D02*
X9250301Y-14630531D01*
X9250301Y-14630531D02*
X9259824Y-14621008D01*
X9259824Y-14621008D02*
X9278872Y-14611484D01*
X9431253Y-14792436D02*
X9440777Y-14801960D01*
X9440777Y-14801960D02*
X9431253Y-14811484D01*
X9431253Y-14811484D02*
X9421729Y-14801960D01*
X9421729Y-14801960D02*
X9431253Y-14792436D01*
X9431253Y-14792436D02*
X9431253Y-14811484D01*
X9612205Y-14611484D02*
X9574110Y-14611484D01*
X9574110Y-14611484D02*
X9555063Y-14621008D01*
X9555063Y-14621008D02*
X9545539Y-14630531D01*
X9545539Y-14630531D02*
X9526491Y-14659103D01*
X9526491Y-14659103D02*
X9516967Y-14697198D01*
X9516967Y-14697198D02*
X9516967Y-14773388D01*
X9516967Y-14773388D02*
X9526491Y-14792436D01*
X9526491Y-14792436D02*
X9536015Y-14801960D01*
X9536015Y-14801960D02*
X9555063Y-14811484D01*
X9555063Y-14811484D02*
X9593158Y-14811484D01*
X9593158Y-14811484D02*
X9612205Y-14801960D01*
X9612205Y-14801960D02*
X9621729Y-14792436D01*
X9621729Y-14792436D02*
X9631253Y-14773388D01*
X9631253Y-14773388D02*
X9631253Y-14725769D01*
X9631253Y-14725769D02*
X9621729Y-14706722D01*
X9621729Y-14706722D02*
X9612205Y-14697198D01*
X9612205Y-14697198D02*
X9593158Y-14687674D01*
X9593158Y-14687674D02*
X9555063Y-14687674D01*
X9555063Y-14687674D02*
X9536015Y-14697198D01*
X9536015Y-14697198D02*
X9526491Y-14706722D01*
X9526491Y-14706722D02*
X9516967Y-14725769D01*
X9812205Y-14611484D02*
X9716967Y-14611484D01*
X9716967Y-14611484D02*
X9707444Y-14706722D01*
X9707444Y-14706722D02*
X9716967Y-14697198D01*
X9716967Y-14697198D02*
X9736015Y-14687674D01*
X9736015Y-14687674D02*
X9783634Y-14687674D01*
X9783634Y-14687674D02*
X9802682Y-14697198D01*
X9802682Y-14697198D02*
X9812205Y-14706722D01*
X9812205Y-14706722D02*
X9821729Y-14725769D01*
X9821729Y-14725769D02*
X9821729Y-14773388D01*
X9821729Y-14773388D02*
X9812205Y-14792436D01*
X9812205Y-14792436D02*
X9802682Y-14801960D01*
X9802682Y-14801960D02*
X9783634Y-14811484D01*
X9783634Y-14811484D02*
X9736015Y-14811484D01*
X9736015Y-14811484D02*
X9716967Y-14801960D01*
X9716967Y-14801960D02*
X9707444Y-14792436D01*
X9945539Y-14611484D02*
X9964586Y-14611484D01*
X9964586Y-14611484D02*
X9983634Y-14621008D01*
X9983634Y-14621008D02*
X9993158Y-14630531D01*
X9993158Y-14630531D02*
X10002682Y-14649579D01*
X10002682Y-14649579D02*
X10012205Y-14687674D01*
X10012205Y-14687674D02*
X10012205Y-14735293D01*
X10012205Y-14735293D02*
X10002682Y-14773388D01*
X10002682Y-14773388D02*
X9993158Y-14792436D01*
X9993158Y-14792436D02*
X9983634Y-14801960D01*
X9983634Y-14801960D02*
X9964586Y-14811484D01*
X9964586Y-14811484D02*
X9945539Y-14811484D01*
X9945539Y-14811484D02*
X9926491Y-14801960D01*
X9926491Y-14801960D02*
X9916967Y-14792436D01*
X9916967Y-14792436D02*
X9907444Y-14773388D01*
X9907444Y-14773388D02*
X9897920Y-14735293D01*
X9897920Y-14735293D02*
X9897920Y-14687674D01*
X9897920Y-14687674D02*
X9907444Y-14649579D01*
X9907444Y-14649579D02*
X9916967Y-14630531D01*
X9916967Y-14630531D02*
X9926491Y-14621008D01*
X9926491Y-14621008D02*
X9945539Y-14611484D01*
X10097920Y-14811484D02*
X10097920Y-14678150D01*
X10097920Y-14697198D02*
X10107444Y-14687674D01*
X10107444Y-14687674D02*
X10126491Y-14678150D01*
X10126491Y-14678150D02*
X10155063Y-14678150D01*
X10155063Y-14678150D02*
X10174110Y-14687674D01*
X10174110Y-14687674D02*
X10183634Y-14706722D01*
X10183634Y-14706722D02*
X10183634Y-14811484D01*
X10183634Y-14706722D02*
X10193158Y-14687674D01*
X10193158Y-14687674D02*
X10212205Y-14678150D01*
X10212205Y-14678150D02*
X10240777Y-14678150D01*
X10240777Y-14678150D02*
X10259825Y-14687674D01*
X10259825Y-14687674D02*
X10269348Y-14706722D01*
X10269348Y-14706722D02*
X10269348Y-14811484D01*
X10364586Y-14811484D02*
X10364586Y-14678150D01*
X10364586Y-14697198D02*
X10374110Y-14687674D01*
X10374110Y-14687674D02*
X10393158Y-14678150D01*
X10393158Y-14678150D02*
X10421729Y-14678150D01*
X10421729Y-14678150D02*
X10440777Y-14687674D01*
X10440777Y-14687674D02*
X10450301Y-14706722D01*
X10450301Y-14706722D02*
X10450301Y-14811484D01*
X10450301Y-14706722D02*
X10459825Y-14687674D01*
X10459825Y-14687674D02*
X10478872Y-14678150D01*
X10478872Y-14678150D02*
X10507444Y-14678150D01*
X10507444Y-14678150D02*
X10526491Y-14687674D01*
X10526491Y-14687674D02*
X10536015Y-14706722D01*
X10536015Y-14706722D02*
X10536015Y-14811484D01*
X10926491Y-14601960D02*
X10755063Y-14859103D01*
X11183634Y-14611484D02*
X11202682Y-14611484D01*
X11202682Y-14611484D02*
X11221729Y-14621008D01*
X11221729Y-14621008D02*
X11231253Y-14630531D01*
X11231253Y-14630531D02*
X11240777Y-14649579D01*
X11240777Y-14649579D02*
X11250301Y-14687674D01*
X11250301Y-14687674D02*
X11250301Y-14735293D01*
X11250301Y-14735293D02*
X11240777Y-14773388D01*
X11240777Y-14773388D02*
X11231253Y-14792436D01*
X11231253Y-14792436D02*
X11221729Y-14801960D01*
X11221729Y-14801960D02*
X11202682Y-14811484D01*
X11202682Y-14811484D02*
X11183634Y-14811484D01*
X11183634Y-14811484D02*
X11164587Y-14801960D01*
X11164587Y-14801960D02*
X11155063Y-14792436D01*
X11155063Y-14792436D02*
X11145539Y-14773388D01*
X11145539Y-14773388D02*
X11136015Y-14735293D01*
X11136015Y-14735293D02*
X11136015Y-14687674D01*
X11136015Y-14687674D02*
X11145539Y-14649579D01*
X11145539Y-14649579D02*
X11155063Y-14630531D01*
X11155063Y-14630531D02*
X11164587Y-14621008D01*
X11164587Y-14621008D02*
X11183634Y-14611484D01*
X11336015Y-14792436D02*
X11345539Y-14801960D01*
X11345539Y-14801960D02*
X11336015Y-14811484D01*
X11336015Y-14811484D02*
X11326491Y-14801960D01*
X11326491Y-14801960D02*
X11336015Y-14792436D01*
X11336015Y-14792436D02*
X11336015Y-14811484D01*
X11469348Y-14611484D02*
X11488396Y-14611484D01*
X11488396Y-14611484D02*
X11507444Y-14621008D01*
X11507444Y-14621008D02*
X11516967Y-14630531D01*
X11516967Y-14630531D02*
X11526491Y-14649579D01*
X11526491Y-14649579D02*
X11536015Y-14687674D01*
X11536015Y-14687674D02*
X11536015Y-14735293D01*
X11536015Y-14735293D02*
X11526491Y-14773388D01*
X11526491Y-14773388D02*
X11516967Y-14792436D01*
X11516967Y-14792436D02*
X11507444Y-14801960D01*
X11507444Y-14801960D02*
X11488396Y-14811484D01*
X11488396Y-14811484D02*
X11469348Y-14811484D01*
X11469348Y-14811484D02*
X11450301Y-14801960D01*
X11450301Y-14801960D02*
X11440777Y-14792436D01*
X11440777Y-14792436D02*
X11431253Y-14773388D01*
X11431253Y-14773388D02*
X11421729Y-14735293D01*
X11421729Y-14735293D02*
X11421729Y-14687674D01*
X11421729Y-14687674D02*
X11431253Y-14649579D01*
X11431253Y-14649579D02*
X11440777Y-14630531D01*
X11440777Y-14630531D02*
X11450301Y-14621008D01*
X11450301Y-14621008D02*
X11469348Y-14611484D01*
X11612206Y-14630531D02*
X11621729Y-14621008D01*
X11621729Y-14621008D02*
X11640777Y-14611484D01*
X11640777Y-14611484D02*
X11688396Y-14611484D01*
X11688396Y-14611484D02*
X11707444Y-14621008D01*
X11707444Y-14621008D02*
X11716967Y-14630531D01*
X11716967Y-14630531D02*
X11726491Y-14649579D01*
X11726491Y-14649579D02*
X11726491Y-14668627D01*
X11726491Y-14668627D02*
X11716967Y-14697198D01*
X11716967Y-14697198D02*
X11602682Y-14811484D01*
X11602682Y-14811484D02*
X11726491Y-14811484D01*
X11907444Y-14611484D02*
X11812206Y-14611484D01*
X11812206Y-14611484D02*
X11802682Y-14706722D01*
X11802682Y-14706722D02*
X11812206Y-14697198D01*
X11812206Y-14697198D02*
X11831253Y-14687674D01*
X11831253Y-14687674D02*
X11878872Y-14687674D01*
X11878872Y-14687674D02*
X11897920Y-14697198D01*
X11897920Y-14697198D02*
X11907444Y-14706722D01*
X11907444Y-14706722D02*
X11916967Y-14725769D01*
X11916967Y-14725769D02*
X11916967Y-14773388D01*
X11916967Y-14773388D02*
X11907444Y-14792436D01*
X11907444Y-14792436D02*
X11897920Y-14801960D01*
X11897920Y-14801960D02*
X11878872Y-14811484D01*
X11878872Y-14811484D02*
X11831253Y-14811484D01*
X11831253Y-14811484D02*
X11812206Y-14801960D01*
X11812206Y-14801960D02*
X11802682Y-14792436D01*
X12088396Y-14611484D02*
X12050301Y-14611484D01*
X12050301Y-14611484D02*
X12031253Y-14621008D01*
X12031253Y-14621008D02*
X12021729Y-14630531D01*
X12021729Y-14630531D02*
X12002682Y-14659103D01*
X12002682Y-14659103D02*
X11993158Y-14697198D01*
X11993158Y-14697198D02*
X11993158Y-14773388D01*
X11993158Y-14773388D02*
X12002682Y-14792436D01*
X12002682Y-14792436D02*
X12012206Y-14801960D01*
X12012206Y-14801960D02*
X12031253Y-14811484D01*
X12031253Y-14811484D02*
X12069348Y-14811484D01*
X12069348Y-14811484D02*
X12088396Y-14801960D01*
X12088396Y-14801960D02*
X12097920Y-14792436D01*
X12097920Y-14792436D02*
X12107444Y-14773388D01*
X12107444Y-14773388D02*
X12107444Y-14725769D01*
X12107444Y-14725769D02*
X12097920Y-14706722D01*
X12097920Y-14706722D02*
X12088396Y-14697198D01*
X12088396Y-14697198D02*
X12069348Y-14687674D01*
X12069348Y-14687674D02*
X12031253Y-14687674D01*
X12031253Y-14687674D02*
X12012206Y-14697198D01*
X12012206Y-14697198D02*
X12002682Y-14706722D01*
X12002682Y-14706722D02*
X11993158Y-14725769D01*
X12183634Y-14611484D02*
X12183634Y-14649579D01*
X12259825Y-14611484D02*
X12259825Y-14649579D01*
X12555063Y-14887674D02*
X12545539Y-14878150D01*
X12545539Y-14878150D02*
X12526491Y-14849579D01*
X12526491Y-14849579D02*
X12516968Y-14830531D01*
X12516968Y-14830531D02*
X12507444Y-14801960D01*
X12507444Y-14801960D02*
X12497920Y-14754341D01*
X12497920Y-14754341D02*
X12497920Y-14716246D01*
X12497920Y-14716246D02*
X12507444Y-14668627D01*
X12507444Y-14668627D02*
X12516968Y-14640055D01*
X12516968Y-14640055D02*
X12526491Y-14621008D01*
X12526491Y-14621008D02*
X12545539Y-14592436D01*
X12545539Y-14592436D02*
X12555063Y-14582912D01*
X12621729Y-14630531D02*
X12631253Y-14621008D01*
X12631253Y-14621008D02*
X12650301Y-14611484D01*
X12650301Y-14611484D02*
X12697920Y-14611484D01*
X12697920Y-14611484D02*
X12716968Y-14621008D01*
X12716968Y-14621008D02*
X12726491Y-14630531D01*
X12726491Y-14630531D02*
X12736015Y-14649579D01*
X12736015Y-14649579D02*
X12736015Y-14668627D01*
X12736015Y-14668627D02*
X12726491Y-14697198D01*
X12726491Y-14697198D02*
X12612206Y-14811484D01*
X12612206Y-14811484D02*
X12736015Y-14811484D01*
X12974110Y-14811484D02*
X12974110Y-14611484D01*
X13059825Y-14811484D02*
X13059825Y-14706722D01*
X13059825Y-14706722D02*
X13050301Y-14687674D01*
X13050301Y-14687674D02*
X13031253Y-14678150D01*
X13031253Y-14678150D02*
X13002682Y-14678150D01*
X13002682Y-14678150D02*
X12983634Y-14687674D01*
X12983634Y-14687674D02*
X12974110Y-14697198D01*
X13183634Y-14811484D02*
X13164587Y-14801960D01*
X13164587Y-14801960D02*
X13155063Y-14792436D01*
X13155063Y-14792436D02*
X13145539Y-14773388D01*
X13145539Y-14773388D02*
X13145539Y-14716246D01*
X13145539Y-14716246D02*
X13155063Y-14697198D01*
X13155063Y-14697198D02*
X13164587Y-14687674D01*
X13164587Y-14687674D02*
X13183634Y-14678150D01*
X13183634Y-14678150D02*
X13212206Y-14678150D01*
X13212206Y-14678150D02*
X13231253Y-14687674D01*
X13231253Y-14687674D02*
X13240777Y-14697198D01*
X13240777Y-14697198D02*
X13250301Y-14716246D01*
X13250301Y-14716246D02*
X13250301Y-14773388D01*
X13250301Y-14773388D02*
X13240777Y-14792436D01*
X13240777Y-14792436D02*
X13231253Y-14801960D01*
X13231253Y-14801960D02*
X13212206Y-14811484D01*
X13212206Y-14811484D02*
X13183634Y-14811484D01*
X13364587Y-14811484D02*
X13345539Y-14801960D01*
X13345539Y-14801960D02*
X13336015Y-14782912D01*
X13336015Y-14782912D02*
X13336015Y-14611484D01*
X13516968Y-14801960D02*
X13497920Y-14811484D01*
X13497920Y-14811484D02*
X13459825Y-14811484D01*
X13459825Y-14811484D02*
X13440777Y-14801960D01*
X13440777Y-14801960D02*
X13431253Y-14782912D01*
X13431253Y-14782912D02*
X13431253Y-14706722D01*
X13431253Y-14706722D02*
X13440777Y-14687674D01*
X13440777Y-14687674D02*
X13459825Y-14678150D01*
X13459825Y-14678150D02*
X13497920Y-14678150D01*
X13497920Y-14678150D02*
X13516968Y-14687674D01*
X13516968Y-14687674D02*
X13526491Y-14706722D01*
X13526491Y-14706722D02*
X13526491Y-14725769D01*
X13526491Y-14725769D02*
X13431253Y-14744817D01*
X13602682Y-14801960D02*
X13621730Y-14811484D01*
X13621730Y-14811484D02*
X13659825Y-14811484D01*
X13659825Y-14811484D02*
X13678872Y-14801960D01*
X13678872Y-14801960D02*
X13688396Y-14782912D01*
X13688396Y-14782912D02*
X13688396Y-14773388D01*
X13688396Y-14773388D02*
X13678872Y-14754341D01*
X13678872Y-14754341D02*
X13659825Y-14744817D01*
X13659825Y-14744817D02*
X13631253Y-14744817D01*
X13631253Y-14744817D02*
X13612206Y-14735293D01*
X13612206Y-14735293D02*
X13602682Y-14716246D01*
X13602682Y-14716246D02*
X13602682Y-14706722D01*
X13602682Y-14706722D02*
X13612206Y-14687674D01*
X13612206Y-14687674D02*
X13631253Y-14678150D01*
X13631253Y-14678150D02*
X13659825Y-14678150D01*
X13659825Y-14678150D02*
X13678872Y-14687674D01*
X13755063Y-14887674D02*
X13764587Y-14878150D01*
X13764587Y-14878150D02*
X13783634Y-14849579D01*
X13783634Y-14849579D02*
X13793158Y-14830531D01*
X13793158Y-14830531D02*
X13802682Y-14801960D01*
X13802682Y-14801960D02*
X13812206Y-14754341D01*
X13812206Y-14754341D02*
X13812206Y-14716246D01*
X13812206Y-14716246D02*
X13802682Y-14668627D01*
X13802682Y-14668627D02*
X13793158Y-14640055D01*
X13793158Y-14640055D02*
X13783634Y-14621008D01*
X13783634Y-14621008D02*
X13764587Y-14592436D01*
X13764587Y-14592436D02*
X13755063Y-14582912D01*
X14116968Y-14887674D02*
X14107444Y-14878150D01*
X14107444Y-14878150D02*
X14088396Y-14849579D01*
X14088396Y-14849579D02*
X14078872Y-14830531D01*
X14078872Y-14830531D02*
X14069349Y-14801960D01*
X14069349Y-14801960D02*
X14059825Y-14754341D01*
X14059825Y-14754341D02*
X14059825Y-14716246D01*
X14059825Y-14716246D02*
X14069349Y-14668627D01*
X14069349Y-14668627D02*
X14078872Y-14640055D01*
X14078872Y-14640055D02*
X14088396Y-14621008D01*
X14088396Y-14621008D02*
X14107444Y-14592436D01*
X14107444Y-14592436D02*
X14116968Y-14582912D01*
X14193158Y-14678150D02*
X14193158Y-14811484D01*
X14193158Y-14697198D02*
X14202682Y-14687674D01*
X14202682Y-14687674D02*
X14221730Y-14678150D01*
X14221730Y-14678150D02*
X14250301Y-14678150D01*
X14250301Y-14678150D02*
X14269349Y-14687674D01*
X14269349Y-14687674D02*
X14278872Y-14706722D01*
X14278872Y-14706722D02*
X14278872Y-14811484D01*
X14402682Y-14811484D02*
X14383634Y-14801960D01*
X14383634Y-14801960D02*
X14374111Y-14792436D01*
X14374111Y-14792436D02*
X14364587Y-14773388D01*
X14364587Y-14773388D02*
X14364587Y-14716246D01*
X14364587Y-14716246D02*
X14374111Y-14697198D01*
X14374111Y-14697198D02*
X14383634Y-14687674D01*
X14383634Y-14687674D02*
X14402682Y-14678150D01*
X14402682Y-14678150D02*
X14431253Y-14678150D01*
X14431253Y-14678150D02*
X14450301Y-14687674D01*
X14450301Y-14687674D02*
X14459825Y-14697198D01*
X14459825Y-14697198D02*
X14469349Y-14716246D01*
X14469349Y-14716246D02*
X14469349Y-14773388D01*
X14469349Y-14773388D02*
X14459825Y-14792436D01*
X14459825Y-14792436D02*
X14450301Y-14801960D01*
X14450301Y-14801960D02*
X14431253Y-14811484D01*
X14431253Y-14811484D02*
X14402682Y-14811484D01*
X14526492Y-14678150D02*
X14602682Y-14678150D01*
X14555063Y-14611484D02*
X14555063Y-14782912D01*
X14555063Y-14782912D02*
X14564587Y-14801960D01*
X14564587Y-14801960D02*
X14583634Y-14811484D01*
X14583634Y-14811484D02*
X14602682Y-14811484D01*
X14821730Y-14678150D02*
X14821730Y-14878150D01*
X14821730Y-14687674D02*
X14840777Y-14678150D01*
X14840777Y-14678150D02*
X14878873Y-14678150D01*
X14878873Y-14678150D02*
X14897920Y-14687674D01*
X14897920Y-14687674D02*
X14907444Y-14697198D01*
X14907444Y-14697198D02*
X14916968Y-14716246D01*
X14916968Y-14716246D02*
X14916968Y-14773388D01*
X14916968Y-14773388D02*
X14907444Y-14792436D01*
X14907444Y-14792436D02*
X14897920Y-14801960D01*
X14897920Y-14801960D02*
X14878873Y-14811484D01*
X14878873Y-14811484D02*
X14840777Y-14811484D01*
X14840777Y-14811484D02*
X14821730Y-14801960D01*
X15031253Y-14811484D02*
X15012206Y-14801960D01*
X15012206Y-14801960D02*
X15002682Y-14782912D01*
X15002682Y-14782912D02*
X15002682Y-14611484D01*
X15193158Y-14811484D02*
X15193158Y-14706722D01*
X15193158Y-14706722D02*
X15183634Y-14687674D01*
X15183634Y-14687674D02*
X15164587Y-14678150D01*
X15164587Y-14678150D02*
X15126492Y-14678150D01*
X15126492Y-14678150D02*
X15107444Y-14687674D01*
X15193158Y-14801960D02*
X15174111Y-14811484D01*
X15174111Y-14811484D02*
X15126492Y-14811484D01*
X15126492Y-14811484D02*
X15107444Y-14801960D01*
X15107444Y-14801960D02*
X15097920Y-14782912D01*
X15097920Y-14782912D02*
X15097920Y-14763865D01*
X15097920Y-14763865D02*
X15107444Y-14744817D01*
X15107444Y-14744817D02*
X15126492Y-14735293D01*
X15126492Y-14735293D02*
X15174111Y-14735293D01*
X15174111Y-14735293D02*
X15193158Y-14725769D01*
X15259825Y-14678150D02*
X15336015Y-14678150D01*
X15288396Y-14611484D02*
X15288396Y-14782912D01*
X15288396Y-14782912D02*
X15297920Y-14801960D01*
X15297920Y-14801960D02*
X15316968Y-14811484D01*
X15316968Y-14811484D02*
X15336015Y-14811484D01*
X15478873Y-14801960D02*
X15459825Y-14811484D01*
X15459825Y-14811484D02*
X15421730Y-14811484D01*
X15421730Y-14811484D02*
X15402682Y-14801960D01*
X15402682Y-14801960D02*
X15393158Y-14782912D01*
X15393158Y-14782912D02*
X15393158Y-14706722D01*
X15393158Y-14706722D02*
X15402682Y-14687674D01*
X15402682Y-14687674D02*
X15421730Y-14678150D01*
X15421730Y-14678150D02*
X15459825Y-14678150D01*
X15459825Y-14678150D02*
X15478873Y-14687674D01*
X15478873Y-14687674D02*
X15488396Y-14706722D01*
X15488396Y-14706722D02*
X15488396Y-14725769D01*
X15488396Y-14725769D02*
X15393158Y-14744817D01*
X15659825Y-14811484D02*
X15659825Y-14611484D01*
X15659825Y-14801960D02*
X15640777Y-14811484D01*
X15640777Y-14811484D02*
X15602682Y-14811484D01*
X15602682Y-14811484D02*
X15583634Y-14801960D01*
X15583634Y-14801960D02*
X15574111Y-14792436D01*
X15574111Y-14792436D02*
X15564587Y-14773388D01*
X15564587Y-14773388D02*
X15564587Y-14716246D01*
X15564587Y-14716246D02*
X15574111Y-14697198D01*
X15574111Y-14697198D02*
X15583634Y-14687674D01*
X15583634Y-14687674D02*
X15602682Y-14678150D01*
X15602682Y-14678150D02*
X15640777Y-14678150D01*
X15640777Y-14678150D02*
X15659825Y-14687674D01*
X15736015Y-14887674D02*
X15745539Y-14878150D01*
X15745539Y-14878150D02*
X15764587Y-14849579D01*
X15764587Y-14849579D02*
X15774111Y-14830531D01*
X15774111Y-14830531D02*
X15783634Y-14801960D01*
X15783634Y-14801960D02*
X15793158Y-14754341D01*
X15793158Y-14754341D02*
X15793158Y-14716246D01*
X15793158Y-14716246D02*
X15783634Y-14668627D01*
X15783634Y-14668627D02*
X15774111Y-14640055D01*
X15774111Y-14640055D02*
X15764587Y-14621008D01*
X15764587Y-14621008D02*
X15745539Y-14592436D01*
X15745539Y-14592436D02*
X15736015Y-14582912D01*
D12*
X8980000Y-14984000D02*
G75*
G03*
X8870000Y-14984000I-55000J0D01*
G01*
X8870000Y-14984000D02*
G75*
G03*
X8980000Y-14984000I55000J0D01*
G01*
D10*
X9345539Y-15075484D02*
X9231253Y-15075484D01*
X9288396Y-15075484D02*
X9288396Y-14875484D01*
X9288396Y-14875484D02*
X9269348Y-14904055D01*
X9269348Y-14904055D02*
X9250301Y-14923103D01*
X9250301Y-14923103D02*
X9231253Y-14932627D01*
X9431253Y-15056436D02*
X9440777Y-15065960D01*
X9440777Y-15065960D02*
X9431253Y-15075484D01*
X9431253Y-15075484D02*
X9421729Y-15065960D01*
X9421729Y-15065960D02*
X9431253Y-15056436D01*
X9431253Y-15056436D02*
X9431253Y-15075484D01*
X9631253Y-15075484D02*
X9516967Y-15075484D01*
X9574110Y-15075484D02*
X9574110Y-14875484D01*
X9574110Y-14875484D02*
X9555063Y-14904055D01*
X9555063Y-14904055D02*
X9536015Y-14923103D01*
X9536015Y-14923103D02*
X9516967Y-14932627D01*
X9755063Y-14875484D02*
X9774110Y-14875484D01*
X9774110Y-14875484D02*
X9793158Y-14885008D01*
X9793158Y-14885008D02*
X9802682Y-14894531D01*
X9802682Y-14894531D02*
X9812205Y-14913579D01*
X9812205Y-14913579D02*
X9821729Y-14951674D01*
X9821729Y-14951674D02*
X9821729Y-14999293D01*
X9821729Y-14999293D02*
X9812205Y-15037388D01*
X9812205Y-15037388D02*
X9802682Y-15056436D01*
X9802682Y-15056436D02*
X9793158Y-15065960D01*
X9793158Y-15065960D02*
X9774110Y-15075484D01*
X9774110Y-15075484D02*
X9755063Y-15075484D01*
X9755063Y-15075484D02*
X9736015Y-15065960D01*
X9736015Y-15065960D02*
X9726491Y-15056436D01*
X9726491Y-15056436D02*
X9716967Y-15037388D01*
X9716967Y-15037388D02*
X9707444Y-14999293D01*
X9707444Y-14999293D02*
X9707444Y-14951674D01*
X9707444Y-14951674D02*
X9716967Y-14913579D01*
X9716967Y-14913579D02*
X9726491Y-14894531D01*
X9726491Y-14894531D02*
X9736015Y-14885008D01*
X9736015Y-14885008D02*
X9755063Y-14875484D01*
X9945539Y-14875484D02*
X9964586Y-14875484D01*
X9964586Y-14875484D02*
X9983634Y-14885008D01*
X9983634Y-14885008D02*
X9993158Y-14894531D01*
X9993158Y-14894531D02*
X10002682Y-14913579D01*
X10002682Y-14913579D02*
X10012205Y-14951674D01*
X10012205Y-14951674D02*
X10012205Y-14999293D01*
X10012205Y-14999293D02*
X10002682Y-15037388D01*
X10002682Y-15037388D02*
X9993158Y-15056436D01*
X9993158Y-15056436D02*
X9983634Y-15065960D01*
X9983634Y-15065960D02*
X9964586Y-15075484D01*
X9964586Y-15075484D02*
X9945539Y-15075484D01*
X9945539Y-15075484D02*
X9926491Y-15065960D01*
X9926491Y-15065960D02*
X9916967Y-15056436D01*
X9916967Y-15056436D02*
X9907444Y-15037388D01*
X9907444Y-15037388D02*
X9897920Y-14999293D01*
X9897920Y-14999293D02*
X9897920Y-14951674D01*
X9897920Y-14951674D02*
X9907444Y-14913579D01*
X9907444Y-14913579D02*
X9916967Y-14894531D01*
X9916967Y-14894531D02*
X9926491Y-14885008D01*
X9926491Y-14885008D02*
X9945539Y-14875484D01*
X10097920Y-15075484D02*
X10097920Y-14942150D01*
X10097920Y-14961198D02*
X10107444Y-14951674D01*
X10107444Y-14951674D02*
X10126491Y-14942150D01*
X10126491Y-14942150D02*
X10155063Y-14942150D01*
X10155063Y-14942150D02*
X10174110Y-14951674D01*
X10174110Y-14951674D02*
X10183634Y-14970722D01*
X10183634Y-14970722D02*
X10183634Y-15075484D01*
X10183634Y-14970722D02*
X10193158Y-14951674D01*
X10193158Y-14951674D02*
X10212205Y-14942150D01*
X10212205Y-14942150D02*
X10240777Y-14942150D01*
X10240777Y-14942150D02*
X10259825Y-14951674D01*
X10259825Y-14951674D02*
X10269348Y-14970722D01*
X10269348Y-14970722D02*
X10269348Y-15075484D01*
X10364586Y-15075484D02*
X10364586Y-14942150D01*
X10364586Y-14961198D02*
X10374110Y-14951674D01*
X10374110Y-14951674D02*
X10393158Y-14942150D01*
X10393158Y-14942150D02*
X10421729Y-14942150D01*
X10421729Y-14942150D02*
X10440777Y-14951674D01*
X10440777Y-14951674D02*
X10450301Y-14970722D01*
X10450301Y-14970722D02*
X10450301Y-15075484D01*
X10450301Y-14970722D02*
X10459825Y-14951674D01*
X10459825Y-14951674D02*
X10478872Y-14942150D01*
X10478872Y-14942150D02*
X10507444Y-14942150D01*
X10507444Y-14942150D02*
X10526491Y-14951674D01*
X10526491Y-14951674D02*
X10536015Y-14970722D01*
X10536015Y-14970722D02*
X10536015Y-15075484D01*
X10926491Y-14865960D02*
X10755063Y-15123103D01*
X11183634Y-14875484D02*
X11202682Y-14875484D01*
X11202682Y-14875484D02*
X11221729Y-14885008D01*
X11221729Y-14885008D02*
X11231253Y-14894531D01*
X11231253Y-14894531D02*
X11240777Y-14913579D01*
X11240777Y-14913579D02*
X11250301Y-14951674D01*
X11250301Y-14951674D02*
X11250301Y-14999293D01*
X11250301Y-14999293D02*
X11240777Y-15037388D01*
X11240777Y-15037388D02*
X11231253Y-15056436D01*
X11231253Y-15056436D02*
X11221729Y-15065960D01*
X11221729Y-15065960D02*
X11202682Y-15075484D01*
X11202682Y-15075484D02*
X11183634Y-15075484D01*
X11183634Y-15075484D02*
X11164587Y-15065960D01*
X11164587Y-15065960D02*
X11155063Y-15056436D01*
X11155063Y-15056436D02*
X11145539Y-15037388D01*
X11145539Y-15037388D02*
X11136015Y-14999293D01*
X11136015Y-14999293D02*
X11136015Y-14951674D01*
X11136015Y-14951674D02*
X11145539Y-14913579D01*
X11145539Y-14913579D02*
X11155063Y-14894531D01*
X11155063Y-14894531D02*
X11164587Y-14885008D01*
X11164587Y-14885008D02*
X11183634Y-14875484D01*
X11336015Y-15056436D02*
X11345539Y-15065960D01*
X11345539Y-15065960D02*
X11336015Y-15075484D01*
X11336015Y-15075484D02*
X11326491Y-15065960D01*
X11326491Y-15065960D02*
X11336015Y-15056436D01*
X11336015Y-15056436D02*
X11336015Y-15075484D01*
X11469348Y-14875484D02*
X11488396Y-14875484D01*
X11488396Y-14875484D02*
X11507444Y-14885008D01*
X11507444Y-14885008D02*
X11516967Y-14894531D01*
X11516967Y-14894531D02*
X11526491Y-14913579D01*
X11526491Y-14913579D02*
X11536015Y-14951674D01*
X11536015Y-14951674D02*
X11536015Y-14999293D01*
X11536015Y-14999293D02*
X11526491Y-15037388D01*
X11526491Y-15037388D02*
X11516967Y-15056436D01*
X11516967Y-15056436D02*
X11507444Y-15065960D01*
X11507444Y-15065960D02*
X11488396Y-15075484D01*
X11488396Y-15075484D02*
X11469348Y-15075484D01*
X11469348Y-15075484D02*
X11450301Y-15065960D01*
X11450301Y-15065960D02*
X11440777Y-15056436D01*
X11440777Y-15056436D02*
X11431253Y-15037388D01*
X11431253Y-15037388D02*
X11421729Y-14999293D01*
X11421729Y-14999293D02*
X11421729Y-14951674D01*
X11421729Y-14951674D02*
X11431253Y-14913579D01*
X11431253Y-14913579D02*
X11440777Y-14894531D01*
X11440777Y-14894531D02*
X11450301Y-14885008D01*
X11450301Y-14885008D02*
X11469348Y-14875484D01*
X11707444Y-14942150D02*
X11707444Y-15075484D01*
X11659825Y-14865960D02*
X11612206Y-15008817D01*
X11612206Y-15008817D02*
X11736015Y-15008817D01*
X11793158Y-14875484D02*
X11916967Y-14875484D01*
X11916967Y-14875484D02*
X11850301Y-14951674D01*
X11850301Y-14951674D02*
X11878872Y-14951674D01*
X11878872Y-14951674D02*
X11897920Y-14961198D01*
X11897920Y-14961198D02*
X11907444Y-14970722D01*
X11907444Y-14970722D02*
X11916967Y-14989769D01*
X11916967Y-14989769D02*
X11916967Y-15037388D01*
X11916967Y-15037388D02*
X11907444Y-15056436D01*
X11907444Y-15056436D02*
X11897920Y-15065960D01*
X11897920Y-15065960D02*
X11878872Y-15075484D01*
X11878872Y-15075484D02*
X11821729Y-15075484D01*
X11821729Y-15075484D02*
X11802682Y-15065960D01*
X11802682Y-15065960D02*
X11793158Y-15056436D01*
X11983634Y-14875484D02*
X12107444Y-14875484D01*
X12107444Y-14875484D02*
X12040777Y-14951674D01*
X12040777Y-14951674D02*
X12069348Y-14951674D01*
X12069348Y-14951674D02*
X12088396Y-14961198D01*
X12088396Y-14961198D02*
X12097920Y-14970722D01*
X12097920Y-14970722D02*
X12107444Y-14989769D01*
X12107444Y-14989769D02*
X12107444Y-15037388D01*
X12107444Y-15037388D02*
X12097920Y-15056436D01*
X12097920Y-15056436D02*
X12088396Y-15065960D01*
X12088396Y-15065960D02*
X12069348Y-15075484D01*
X12069348Y-15075484D02*
X12012206Y-15075484D01*
X12012206Y-15075484D02*
X11993158Y-15065960D01*
X11993158Y-15065960D02*
X11983634Y-15056436D01*
X12183634Y-14875484D02*
X12183634Y-14913579D01*
X12259825Y-14875484D02*
X12259825Y-14913579D01*
X12555063Y-15151674D02*
X12545539Y-15142150D01*
X12545539Y-15142150D02*
X12526491Y-15113579D01*
X12526491Y-15113579D02*
X12516968Y-15094531D01*
X12516968Y-15094531D02*
X12507444Y-15065960D01*
X12507444Y-15065960D02*
X12497920Y-15018341D01*
X12497920Y-15018341D02*
X12497920Y-14980246D01*
X12497920Y-14980246D02*
X12507444Y-14932627D01*
X12507444Y-14932627D02*
X12516968Y-14904055D01*
X12516968Y-14904055D02*
X12526491Y-14885008D01*
X12526491Y-14885008D02*
X12545539Y-14856436D01*
X12545539Y-14856436D02*
X12555063Y-14846912D01*
X12716968Y-14942150D02*
X12716968Y-15075484D01*
X12669348Y-14865960D02*
X12621729Y-15008817D01*
X12621729Y-15008817D02*
X12745539Y-15008817D01*
X12974110Y-15075484D02*
X12974110Y-14875484D01*
X13059825Y-15075484D02*
X13059825Y-14970722D01*
X13059825Y-14970722D02*
X13050301Y-14951674D01*
X13050301Y-14951674D02*
X13031253Y-14942150D01*
X13031253Y-14942150D02*
X13002682Y-14942150D01*
X13002682Y-14942150D02*
X12983634Y-14951674D01*
X12983634Y-14951674D02*
X12974110Y-14961198D01*
X13183634Y-15075484D02*
X13164587Y-15065960D01*
X13164587Y-15065960D02*
X13155063Y-15056436D01*
X13155063Y-15056436D02*
X13145539Y-15037388D01*
X13145539Y-15037388D02*
X13145539Y-14980246D01*
X13145539Y-14980246D02*
X13155063Y-14961198D01*
X13155063Y-14961198D02*
X13164587Y-14951674D01*
X13164587Y-14951674D02*
X13183634Y-14942150D01*
X13183634Y-14942150D02*
X13212206Y-14942150D01*
X13212206Y-14942150D02*
X13231253Y-14951674D01*
X13231253Y-14951674D02*
X13240777Y-14961198D01*
X13240777Y-14961198D02*
X13250301Y-14980246D01*
X13250301Y-14980246D02*
X13250301Y-15037388D01*
X13250301Y-15037388D02*
X13240777Y-15056436D01*
X13240777Y-15056436D02*
X13231253Y-15065960D01*
X13231253Y-15065960D02*
X13212206Y-15075484D01*
X13212206Y-15075484D02*
X13183634Y-15075484D01*
X13364587Y-15075484D02*
X13345539Y-15065960D01*
X13345539Y-15065960D02*
X13336015Y-15046912D01*
X13336015Y-15046912D02*
X13336015Y-14875484D01*
X13516968Y-15065960D02*
X13497920Y-15075484D01*
X13497920Y-15075484D02*
X13459825Y-15075484D01*
X13459825Y-15075484D02*
X13440777Y-15065960D01*
X13440777Y-15065960D02*
X13431253Y-15046912D01*
X13431253Y-15046912D02*
X13431253Y-14970722D01*
X13431253Y-14970722D02*
X13440777Y-14951674D01*
X13440777Y-14951674D02*
X13459825Y-14942150D01*
X13459825Y-14942150D02*
X13497920Y-14942150D01*
X13497920Y-14942150D02*
X13516968Y-14951674D01*
X13516968Y-14951674D02*
X13526491Y-14970722D01*
X13526491Y-14970722D02*
X13526491Y-14989769D01*
X13526491Y-14989769D02*
X13431253Y-15008817D01*
X13602682Y-15065960D02*
X13621730Y-15075484D01*
X13621730Y-15075484D02*
X13659825Y-15075484D01*
X13659825Y-15075484D02*
X13678872Y-15065960D01*
X13678872Y-15065960D02*
X13688396Y-15046912D01*
X13688396Y-15046912D02*
X13688396Y-15037388D01*
X13688396Y-15037388D02*
X13678872Y-15018341D01*
X13678872Y-15018341D02*
X13659825Y-15008817D01*
X13659825Y-15008817D02*
X13631253Y-15008817D01*
X13631253Y-15008817D02*
X13612206Y-14999293D01*
X13612206Y-14999293D02*
X13602682Y-14980246D01*
X13602682Y-14980246D02*
X13602682Y-14970722D01*
X13602682Y-14970722D02*
X13612206Y-14951674D01*
X13612206Y-14951674D02*
X13631253Y-14942150D01*
X13631253Y-14942150D02*
X13659825Y-14942150D01*
X13659825Y-14942150D02*
X13678872Y-14951674D01*
X13755063Y-15151674D02*
X13764587Y-15142150D01*
X13764587Y-15142150D02*
X13783634Y-15113579D01*
X13783634Y-15113579D02*
X13793158Y-15094531D01*
X13793158Y-15094531D02*
X13802682Y-15065960D01*
X13802682Y-15065960D02*
X13812206Y-15018341D01*
X13812206Y-15018341D02*
X13812206Y-14980246D01*
X13812206Y-14980246D02*
X13802682Y-14932627D01*
X13802682Y-14932627D02*
X13793158Y-14904055D01*
X13793158Y-14904055D02*
X13783634Y-14885008D01*
X13783634Y-14885008D02*
X13764587Y-14856436D01*
X13764587Y-14856436D02*
X13755063Y-14846912D01*
X14116968Y-15151674D02*
X14107444Y-15142150D01*
X14107444Y-15142150D02*
X14088396Y-15113579D01*
X14088396Y-15113579D02*
X14078872Y-15094531D01*
X14078872Y-15094531D02*
X14069349Y-15065960D01*
X14069349Y-15065960D02*
X14059825Y-15018341D01*
X14059825Y-15018341D02*
X14059825Y-14980246D01*
X14059825Y-14980246D02*
X14069349Y-14932627D01*
X14069349Y-14932627D02*
X14078872Y-14904055D01*
X14078872Y-14904055D02*
X14088396Y-14885008D01*
X14088396Y-14885008D02*
X14107444Y-14856436D01*
X14107444Y-14856436D02*
X14116968Y-14846912D01*
X14193158Y-14942150D02*
X14193158Y-15075484D01*
X14193158Y-14961198D02*
X14202682Y-14951674D01*
X14202682Y-14951674D02*
X14221730Y-14942150D01*
X14221730Y-14942150D02*
X14250301Y-14942150D01*
X14250301Y-14942150D02*
X14269349Y-14951674D01*
X14269349Y-14951674D02*
X14278872Y-14970722D01*
X14278872Y-14970722D02*
X14278872Y-15075484D01*
X14402682Y-15075484D02*
X14383634Y-15065960D01*
X14383634Y-15065960D02*
X14374111Y-15056436D01*
X14374111Y-15056436D02*
X14364587Y-15037388D01*
X14364587Y-15037388D02*
X14364587Y-14980246D01*
X14364587Y-14980246D02*
X14374111Y-14961198D01*
X14374111Y-14961198D02*
X14383634Y-14951674D01*
X14383634Y-14951674D02*
X14402682Y-14942150D01*
X14402682Y-14942150D02*
X14431253Y-14942150D01*
X14431253Y-14942150D02*
X14450301Y-14951674D01*
X14450301Y-14951674D02*
X14459825Y-14961198D01*
X14459825Y-14961198D02*
X14469349Y-14980246D01*
X14469349Y-14980246D02*
X14469349Y-15037388D01*
X14469349Y-15037388D02*
X14459825Y-15056436D01*
X14459825Y-15056436D02*
X14450301Y-15065960D01*
X14450301Y-15065960D02*
X14431253Y-15075484D01*
X14431253Y-15075484D02*
X14402682Y-15075484D01*
X14526492Y-14942150D02*
X14602682Y-14942150D01*
X14555063Y-14875484D02*
X14555063Y-15046912D01*
X14555063Y-15046912D02*
X14564587Y-15065960D01*
X14564587Y-15065960D02*
X14583634Y-15075484D01*
X14583634Y-15075484D02*
X14602682Y-15075484D01*
X14821730Y-14942150D02*
X14821730Y-15142150D01*
X14821730Y-14951674D02*
X14840777Y-14942150D01*
X14840777Y-14942150D02*
X14878873Y-14942150D01*
X14878873Y-14942150D02*
X14897920Y-14951674D01*
X14897920Y-14951674D02*
X14907444Y-14961198D01*
X14907444Y-14961198D02*
X14916968Y-14980246D01*
X14916968Y-14980246D02*
X14916968Y-15037388D01*
X14916968Y-15037388D02*
X14907444Y-15056436D01*
X14907444Y-15056436D02*
X14897920Y-15065960D01*
X14897920Y-15065960D02*
X14878873Y-15075484D01*
X14878873Y-15075484D02*
X14840777Y-15075484D01*
X14840777Y-15075484D02*
X14821730Y-15065960D01*
X15031253Y-15075484D02*
X15012206Y-15065960D01*
X15012206Y-15065960D02*
X15002682Y-15046912D01*
X15002682Y-15046912D02*
X15002682Y-14875484D01*
X15193158Y-15075484D02*
X15193158Y-14970722D01*
X15193158Y-14970722D02*
X15183634Y-14951674D01*
X15183634Y-14951674D02*
X15164587Y-14942150D01*
X15164587Y-14942150D02*
X15126492Y-14942150D01*
X15126492Y-14942150D02*
X15107444Y-14951674D01*
X15193158Y-15065960D02*
X15174111Y-15075484D01*
X15174111Y-15075484D02*
X15126492Y-15075484D01*
X15126492Y-15075484D02*
X15107444Y-15065960D01*
X15107444Y-15065960D02*
X15097920Y-15046912D01*
X15097920Y-15046912D02*
X15097920Y-15027865D01*
X15097920Y-15027865D02*
X15107444Y-15008817D01*
X15107444Y-15008817D02*
X15126492Y-14999293D01*
X15126492Y-14999293D02*
X15174111Y-14999293D01*
X15174111Y-14999293D02*
X15193158Y-14989769D01*
X15259825Y-14942150D02*
X15336015Y-14942150D01*
X15288396Y-14875484D02*
X15288396Y-15046912D01*
X15288396Y-15046912D02*
X15297920Y-15065960D01*
X15297920Y-15065960D02*
X15316968Y-15075484D01*
X15316968Y-15075484D02*
X15336015Y-15075484D01*
X15478873Y-15065960D02*
X15459825Y-15075484D01*
X15459825Y-15075484D02*
X15421730Y-15075484D01*
X15421730Y-15075484D02*
X15402682Y-15065960D01*
X15402682Y-15065960D02*
X15393158Y-15046912D01*
X15393158Y-15046912D02*
X15393158Y-14970722D01*
X15393158Y-14970722D02*
X15402682Y-14951674D01*
X15402682Y-14951674D02*
X15421730Y-14942150D01*
X15421730Y-14942150D02*
X15459825Y-14942150D01*
X15459825Y-14942150D02*
X15478873Y-14951674D01*
X15478873Y-14951674D02*
X15488396Y-14970722D01*
X15488396Y-14970722D02*
X15488396Y-14989769D01*
X15488396Y-14989769D02*
X15393158Y-15008817D01*
X15659825Y-15075484D02*
X15659825Y-14875484D01*
X15659825Y-15065960D02*
X15640777Y-15075484D01*
X15640777Y-15075484D02*
X15602682Y-15075484D01*
X15602682Y-15075484D02*
X15583634Y-15065960D01*
X15583634Y-15065960D02*
X15574111Y-15056436D01*
X15574111Y-15056436D02*
X15564587Y-15037388D01*
X15564587Y-15037388D02*
X15564587Y-14980246D01*
X15564587Y-14980246D02*
X15574111Y-14961198D01*
X15574111Y-14961198D02*
X15583634Y-14951674D01*
X15583634Y-14951674D02*
X15602682Y-14942150D01*
X15602682Y-14942150D02*
X15640777Y-14942150D01*
X15640777Y-14942150D02*
X15659825Y-14951674D01*
X15736015Y-15151674D02*
X15745539Y-15142150D01*
X15745539Y-15142150D02*
X15764587Y-15113579D01*
X15764587Y-15113579D02*
X15774111Y-15094531D01*
X15774111Y-15094531D02*
X15783634Y-15065960D01*
X15783634Y-15065960D02*
X15793158Y-15018341D01*
X15793158Y-15018341D02*
X15793158Y-14980246D01*
X15793158Y-14980246D02*
X15783634Y-14932627D01*
X15783634Y-14932627D02*
X15774111Y-14904055D01*
X15774111Y-14904055D02*
X15764587Y-14885008D01*
X15764587Y-14885008D02*
X15745539Y-14856436D01*
X15745539Y-14856436D02*
X15736015Y-14846912D01*
X8880000Y-15148000D02*
X8880000Y-15348000D01*
X8780000Y-15248000D02*
X8980000Y-15248000D01*
X9326491Y-15206150D02*
X9326491Y-15339484D01*
X9278872Y-15129960D02*
X9231253Y-15272817D01*
X9231253Y-15272817D02*
X9355063Y-15272817D01*
X9431253Y-15320436D02*
X9440777Y-15329960D01*
X9440777Y-15329960D02*
X9431253Y-15339484D01*
X9431253Y-15339484D02*
X9421729Y-15329960D01*
X9421729Y-15329960D02*
X9431253Y-15320436D01*
X9431253Y-15320436D02*
X9431253Y-15339484D01*
X9507444Y-15139484D02*
X9631253Y-15139484D01*
X9631253Y-15139484D02*
X9564586Y-15215674D01*
X9564586Y-15215674D02*
X9593158Y-15215674D01*
X9593158Y-15215674D02*
X9612205Y-15225198D01*
X9612205Y-15225198D02*
X9621729Y-15234722D01*
X9621729Y-15234722D02*
X9631253Y-15253769D01*
X9631253Y-15253769D02*
X9631253Y-15301388D01*
X9631253Y-15301388D02*
X9621729Y-15320436D01*
X9621729Y-15320436D02*
X9612205Y-15329960D01*
X9612205Y-15329960D02*
X9593158Y-15339484D01*
X9593158Y-15339484D02*
X9536015Y-15339484D01*
X9536015Y-15339484D02*
X9516967Y-15329960D01*
X9516967Y-15329960D02*
X9507444Y-15320436D01*
X9755063Y-15139484D02*
X9774110Y-15139484D01*
X9774110Y-15139484D02*
X9793158Y-15149008D01*
X9793158Y-15149008D02*
X9802682Y-15158531D01*
X9802682Y-15158531D02*
X9812205Y-15177579D01*
X9812205Y-15177579D02*
X9821729Y-15215674D01*
X9821729Y-15215674D02*
X9821729Y-15263293D01*
X9821729Y-15263293D02*
X9812205Y-15301388D01*
X9812205Y-15301388D02*
X9802682Y-15320436D01*
X9802682Y-15320436D02*
X9793158Y-15329960D01*
X9793158Y-15329960D02*
X9774110Y-15339484D01*
X9774110Y-15339484D02*
X9755063Y-15339484D01*
X9755063Y-15339484D02*
X9736015Y-15329960D01*
X9736015Y-15329960D02*
X9726491Y-15320436D01*
X9726491Y-15320436D02*
X9716967Y-15301388D01*
X9716967Y-15301388D02*
X9707444Y-15263293D01*
X9707444Y-15263293D02*
X9707444Y-15215674D01*
X9707444Y-15215674D02*
X9716967Y-15177579D01*
X9716967Y-15177579D02*
X9726491Y-15158531D01*
X9726491Y-15158531D02*
X9736015Y-15149008D01*
X9736015Y-15149008D02*
X9755063Y-15139484D01*
X9945539Y-15139484D02*
X9964586Y-15139484D01*
X9964586Y-15139484D02*
X9983634Y-15149008D01*
X9983634Y-15149008D02*
X9993158Y-15158531D01*
X9993158Y-15158531D02*
X10002682Y-15177579D01*
X10002682Y-15177579D02*
X10012205Y-15215674D01*
X10012205Y-15215674D02*
X10012205Y-15263293D01*
X10012205Y-15263293D02*
X10002682Y-15301388D01*
X10002682Y-15301388D02*
X9993158Y-15320436D01*
X9993158Y-15320436D02*
X9983634Y-15329960D01*
X9983634Y-15329960D02*
X9964586Y-15339484D01*
X9964586Y-15339484D02*
X9945539Y-15339484D01*
X9945539Y-15339484D02*
X9926491Y-15329960D01*
X9926491Y-15329960D02*
X9916967Y-15320436D01*
X9916967Y-15320436D02*
X9907444Y-15301388D01*
X9907444Y-15301388D02*
X9897920Y-15263293D01*
X9897920Y-15263293D02*
X9897920Y-15215674D01*
X9897920Y-15215674D02*
X9907444Y-15177579D01*
X9907444Y-15177579D02*
X9916967Y-15158531D01*
X9916967Y-15158531D02*
X9926491Y-15149008D01*
X9926491Y-15149008D02*
X9945539Y-15139484D01*
X10097920Y-15339484D02*
X10097920Y-15206150D01*
X10097920Y-15225198D02*
X10107444Y-15215674D01*
X10107444Y-15215674D02*
X10126491Y-15206150D01*
X10126491Y-15206150D02*
X10155063Y-15206150D01*
X10155063Y-15206150D02*
X10174110Y-15215674D01*
X10174110Y-15215674D02*
X10183634Y-15234722D01*
X10183634Y-15234722D02*
X10183634Y-15339484D01*
X10183634Y-15234722D02*
X10193158Y-15215674D01*
X10193158Y-15215674D02*
X10212205Y-15206150D01*
X10212205Y-15206150D02*
X10240777Y-15206150D01*
X10240777Y-15206150D02*
X10259825Y-15215674D01*
X10259825Y-15215674D02*
X10269348Y-15234722D01*
X10269348Y-15234722D02*
X10269348Y-15339484D01*
X10364586Y-15339484D02*
X10364586Y-15206150D01*
X10364586Y-15225198D02*
X10374110Y-15215674D01*
X10374110Y-15215674D02*
X10393158Y-15206150D01*
X10393158Y-15206150D02*
X10421729Y-15206150D01*
X10421729Y-15206150D02*
X10440777Y-15215674D01*
X10440777Y-15215674D02*
X10450301Y-15234722D01*
X10450301Y-15234722D02*
X10450301Y-15339484D01*
X10450301Y-15234722D02*
X10459825Y-15215674D01*
X10459825Y-15215674D02*
X10478872Y-15206150D01*
X10478872Y-15206150D02*
X10507444Y-15206150D01*
X10507444Y-15206150D02*
X10526491Y-15215674D01*
X10526491Y-15215674D02*
X10536015Y-15234722D01*
X10536015Y-15234722D02*
X10536015Y-15339484D01*
X10926491Y-15129960D02*
X10755063Y-15387103D01*
X11183634Y-15139484D02*
X11202682Y-15139484D01*
X11202682Y-15139484D02*
X11221729Y-15149008D01*
X11221729Y-15149008D02*
X11231253Y-15158531D01*
X11231253Y-15158531D02*
X11240777Y-15177579D01*
X11240777Y-15177579D02*
X11250301Y-15215674D01*
X11250301Y-15215674D02*
X11250301Y-15263293D01*
X11250301Y-15263293D02*
X11240777Y-15301388D01*
X11240777Y-15301388D02*
X11231253Y-15320436D01*
X11231253Y-15320436D02*
X11221729Y-15329960D01*
X11221729Y-15329960D02*
X11202682Y-15339484D01*
X11202682Y-15339484D02*
X11183634Y-15339484D01*
X11183634Y-15339484D02*
X11164587Y-15329960D01*
X11164587Y-15329960D02*
X11155063Y-15320436D01*
X11155063Y-15320436D02*
X11145539Y-15301388D01*
X11145539Y-15301388D02*
X11136015Y-15263293D01*
X11136015Y-15263293D02*
X11136015Y-15215674D01*
X11136015Y-15215674D02*
X11145539Y-15177579D01*
X11145539Y-15177579D02*
X11155063Y-15158531D01*
X11155063Y-15158531D02*
X11164587Y-15149008D01*
X11164587Y-15149008D02*
X11183634Y-15139484D01*
X11336015Y-15320436D02*
X11345539Y-15329960D01*
X11345539Y-15329960D02*
X11336015Y-15339484D01*
X11336015Y-15339484D02*
X11326491Y-15329960D01*
X11326491Y-15329960D02*
X11336015Y-15320436D01*
X11336015Y-15320436D02*
X11336015Y-15339484D01*
X11536015Y-15339484D02*
X11421729Y-15339484D01*
X11478872Y-15339484D02*
X11478872Y-15139484D01*
X11478872Y-15139484D02*
X11459825Y-15168055D01*
X11459825Y-15168055D02*
X11440777Y-15187103D01*
X11440777Y-15187103D02*
X11421729Y-15196627D01*
X11707444Y-15139484D02*
X11669348Y-15139484D01*
X11669348Y-15139484D02*
X11650301Y-15149008D01*
X11650301Y-15149008D02*
X11640777Y-15158531D01*
X11640777Y-15158531D02*
X11621729Y-15187103D01*
X11621729Y-15187103D02*
X11612206Y-15225198D01*
X11612206Y-15225198D02*
X11612206Y-15301388D01*
X11612206Y-15301388D02*
X11621729Y-15320436D01*
X11621729Y-15320436D02*
X11631253Y-15329960D01*
X11631253Y-15329960D02*
X11650301Y-15339484D01*
X11650301Y-15339484D02*
X11688396Y-15339484D01*
X11688396Y-15339484D02*
X11707444Y-15329960D01*
X11707444Y-15329960D02*
X11716967Y-15320436D01*
X11716967Y-15320436D02*
X11726491Y-15301388D01*
X11726491Y-15301388D02*
X11726491Y-15253769D01*
X11726491Y-15253769D02*
X11716967Y-15234722D01*
X11716967Y-15234722D02*
X11707444Y-15225198D01*
X11707444Y-15225198D02*
X11688396Y-15215674D01*
X11688396Y-15215674D02*
X11650301Y-15215674D01*
X11650301Y-15215674D02*
X11631253Y-15225198D01*
X11631253Y-15225198D02*
X11621729Y-15234722D01*
X11621729Y-15234722D02*
X11612206Y-15253769D01*
X11821729Y-15339484D02*
X11859825Y-15339484D01*
X11859825Y-15339484D02*
X11878872Y-15329960D01*
X11878872Y-15329960D02*
X11888396Y-15320436D01*
X11888396Y-15320436D02*
X11907444Y-15291865D01*
X11907444Y-15291865D02*
X11916967Y-15253769D01*
X11916967Y-15253769D02*
X11916967Y-15177579D01*
X11916967Y-15177579D02*
X11907444Y-15158531D01*
X11907444Y-15158531D02*
X11897920Y-15149008D01*
X11897920Y-15149008D02*
X11878872Y-15139484D01*
X11878872Y-15139484D02*
X11840777Y-15139484D01*
X11840777Y-15139484D02*
X11821729Y-15149008D01*
X11821729Y-15149008D02*
X11812206Y-15158531D01*
X11812206Y-15158531D02*
X11802682Y-15177579D01*
X11802682Y-15177579D02*
X11802682Y-15225198D01*
X11802682Y-15225198D02*
X11812206Y-15244246D01*
X11812206Y-15244246D02*
X11821729Y-15253769D01*
X11821729Y-15253769D02*
X11840777Y-15263293D01*
X11840777Y-15263293D02*
X11878872Y-15263293D01*
X11878872Y-15263293D02*
X11897920Y-15253769D01*
X11897920Y-15253769D02*
X11907444Y-15244246D01*
X11907444Y-15244246D02*
X11916967Y-15225198D01*
X11983634Y-15139484D02*
X12107444Y-15139484D01*
X12107444Y-15139484D02*
X12040777Y-15215674D01*
X12040777Y-15215674D02*
X12069348Y-15215674D01*
X12069348Y-15215674D02*
X12088396Y-15225198D01*
X12088396Y-15225198D02*
X12097920Y-15234722D01*
X12097920Y-15234722D02*
X12107444Y-15253769D01*
X12107444Y-15253769D02*
X12107444Y-15301388D01*
X12107444Y-15301388D02*
X12097920Y-15320436D01*
X12097920Y-15320436D02*
X12088396Y-15329960D01*
X12088396Y-15329960D02*
X12069348Y-15339484D01*
X12069348Y-15339484D02*
X12012206Y-15339484D01*
X12012206Y-15339484D02*
X11993158Y-15329960D01*
X11993158Y-15329960D02*
X11983634Y-15320436D01*
X12183634Y-15139484D02*
X12183634Y-15177579D01*
X12259825Y-15139484D02*
X12259825Y-15177579D01*
X12555063Y-15415674D02*
X12545539Y-15406150D01*
X12545539Y-15406150D02*
X12526491Y-15377579D01*
X12526491Y-15377579D02*
X12516968Y-15358531D01*
X12516968Y-15358531D02*
X12507444Y-15329960D01*
X12507444Y-15329960D02*
X12497920Y-15282341D01*
X12497920Y-15282341D02*
X12497920Y-15244246D01*
X12497920Y-15244246D02*
X12507444Y-15196627D01*
X12507444Y-15196627D02*
X12516968Y-15168055D01*
X12516968Y-15168055D02*
X12526491Y-15149008D01*
X12526491Y-15149008D02*
X12545539Y-15120436D01*
X12545539Y-15120436D02*
X12555063Y-15110912D01*
X12621729Y-15158531D02*
X12631253Y-15149008D01*
X12631253Y-15149008D02*
X12650301Y-15139484D01*
X12650301Y-15139484D02*
X12697920Y-15139484D01*
X12697920Y-15139484D02*
X12716968Y-15149008D01*
X12716968Y-15149008D02*
X12726491Y-15158531D01*
X12726491Y-15158531D02*
X12736015Y-15177579D01*
X12736015Y-15177579D02*
X12736015Y-15196627D01*
X12736015Y-15196627D02*
X12726491Y-15225198D01*
X12726491Y-15225198D02*
X12612206Y-15339484D01*
X12612206Y-15339484D02*
X12736015Y-15339484D01*
X12974110Y-15339484D02*
X12974110Y-15139484D01*
X13059825Y-15339484D02*
X13059825Y-15234722D01*
X13059825Y-15234722D02*
X13050301Y-15215674D01*
X13050301Y-15215674D02*
X13031253Y-15206150D01*
X13031253Y-15206150D02*
X13002682Y-15206150D01*
X13002682Y-15206150D02*
X12983634Y-15215674D01*
X12983634Y-15215674D02*
X12974110Y-15225198D01*
X13183634Y-15339484D02*
X13164587Y-15329960D01*
X13164587Y-15329960D02*
X13155063Y-15320436D01*
X13155063Y-15320436D02*
X13145539Y-15301388D01*
X13145539Y-15301388D02*
X13145539Y-15244246D01*
X13145539Y-15244246D02*
X13155063Y-15225198D01*
X13155063Y-15225198D02*
X13164587Y-15215674D01*
X13164587Y-15215674D02*
X13183634Y-15206150D01*
X13183634Y-15206150D02*
X13212206Y-15206150D01*
X13212206Y-15206150D02*
X13231253Y-15215674D01*
X13231253Y-15215674D02*
X13240777Y-15225198D01*
X13240777Y-15225198D02*
X13250301Y-15244246D01*
X13250301Y-15244246D02*
X13250301Y-15301388D01*
X13250301Y-15301388D02*
X13240777Y-15320436D01*
X13240777Y-15320436D02*
X13231253Y-15329960D01*
X13231253Y-15329960D02*
X13212206Y-15339484D01*
X13212206Y-15339484D02*
X13183634Y-15339484D01*
X13364587Y-15339484D02*
X13345539Y-15329960D01*
X13345539Y-15329960D02*
X13336015Y-15310912D01*
X13336015Y-15310912D02*
X13336015Y-15139484D01*
X13516968Y-15329960D02*
X13497920Y-15339484D01*
X13497920Y-15339484D02*
X13459825Y-15339484D01*
X13459825Y-15339484D02*
X13440777Y-15329960D01*
X13440777Y-15329960D02*
X13431253Y-15310912D01*
X13431253Y-15310912D02*
X13431253Y-15234722D01*
X13431253Y-15234722D02*
X13440777Y-15215674D01*
X13440777Y-15215674D02*
X13459825Y-15206150D01*
X13459825Y-15206150D02*
X13497920Y-15206150D01*
X13497920Y-15206150D02*
X13516968Y-15215674D01*
X13516968Y-15215674D02*
X13526491Y-15234722D01*
X13526491Y-15234722D02*
X13526491Y-15253769D01*
X13526491Y-15253769D02*
X13431253Y-15272817D01*
X13602682Y-15329960D02*
X13621730Y-15339484D01*
X13621730Y-15339484D02*
X13659825Y-15339484D01*
X13659825Y-15339484D02*
X13678872Y-15329960D01*
X13678872Y-15329960D02*
X13688396Y-15310912D01*
X13688396Y-15310912D02*
X13688396Y-15301388D01*
X13688396Y-15301388D02*
X13678872Y-15282341D01*
X13678872Y-15282341D02*
X13659825Y-15272817D01*
X13659825Y-15272817D02*
X13631253Y-15272817D01*
X13631253Y-15272817D02*
X13612206Y-15263293D01*
X13612206Y-15263293D02*
X13602682Y-15244246D01*
X13602682Y-15244246D02*
X13602682Y-15234722D01*
X13602682Y-15234722D02*
X13612206Y-15215674D01*
X13612206Y-15215674D02*
X13631253Y-15206150D01*
X13631253Y-15206150D02*
X13659825Y-15206150D01*
X13659825Y-15206150D02*
X13678872Y-15215674D01*
X13755063Y-15415674D02*
X13764587Y-15406150D01*
X13764587Y-15406150D02*
X13783634Y-15377579D01*
X13783634Y-15377579D02*
X13793158Y-15358531D01*
X13793158Y-15358531D02*
X13802682Y-15329960D01*
X13802682Y-15329960D02*
X13812206Y-15282341D01*
X13812206Y-15282341D02*
X13812206Y-15244246D01*
X13812206Y-15244246D02*
X13802682Y-15196627D01*
X13802682Y-15196627D02*
X13793158Y-15168055D01*
X13793158Y-15168055D02*
X13783634Y-15149008D01*
X13783634Y-15149008D02*
X13764587Y-15120436D01*
X13764587Y-15120436D02*
X13755063Y-15110912D01*
X14116968Y-15415674D02*
X14107444Y-15406150D01*
X14107444Y-15406150D02*
X14088396Y-15377579D01*
X14088396Y-15377579D02*
X14078872Y-15358531D01*
X14078872Y-15358531D02*
X14069349Y-15329960D01*
X14069349Y-15329960D02*
X14059825Y-15282341D01*
X14059825Y-15282341D02*
X14059825Y-15244246D01*
X14059825Y-15244246D02*
X14069349Y-15196627D01*
X14069349Y-15196627D02*
X14078872Y-15168055D01*
X14078872Y-15168055D02*
X14088396Y-15149008D01*
X14088396Y-15149008D02*
X14107444Y-15120436D01*
X14107444Y-15120436D02*
X14116968Y-15110912D01*
X14193158Y-15206150D02*
X14193158Y-15339484D01*
X14193158Y-15225198D02*
X14202682Y-15215674D01*
X14202682Y-15215674D02*
X14221730Y-15206150D01*
X14221730Y-15206150D02*
X14250301Y-15206150D01*
X14250301Y-15206150D02*
X14269349Y-15215674D01*
X14269349Y-15215674D02*
X14278872Y-15234722D01*
X14278872Y-15234722D02*
X14278872Y-15339484D01*
X14402682Y-15339484D02*
X14383634Y-15329960D01*
X14383634Y-15329960D02*
X14374111Y-15320436D01*
X14374111Y-15320436D02*
X14364587Y-15301388D01*
X14364587Y-15301388D02*
X14364587Y-15244246D01*
X14364587Y-15244246D02*
X14374111Y-15225198D01*
X14374111Y-15225198D02*
X14383634Y-15215674D01*
X14383634Y-15215674D02*
X14402682Y-15206150D01*
X14402682Y-15206150D02*
X14431253Y-15206150D01*
X14431253Y-15206150D02*
X14450301Y-15215674D01*
X14450301Y-15215674D02*
X14459825Y-15225198D01*
X14459825Y-15225198D02*
X14469349Y-15244246D01*
X14469349Y-15244246D02*
X14469349Y-15301388D01*
X14469349Y-15301388D02*
X14459825Y-15320436D01*
X14459825Y-15320436D02*
X14450301Y-15329960D01*
X14450301Y-15329960D02*
X14431253Y-15339484D01*
X14431253Y-15339484D02*
X14402682Y-15339484D01*
X14526492Y-15206150D02*
X14602682Y-15206150D01*
X14555063Y-15139484D02*
X14555063Y-15310912D01*
X14555063Y-15310912D02*
X14564587Y-15329960D01*
X14564587Y-15329960D02*
X14583634Y-15339484D01*
X14583634Y-15339484D02*
X14602682Y-15339484D01*
X14821730Y-15206150D02*
X14821730Y-15406150D01*
X14821730Y-15215674D02*
X14840777Y-15206150D01*
X14840777Y-15206150D02*
X14878873Y-15206150D01*
X14878873Y-15206150D02*
X14897920Y-15215674D01*
X14897920Y-15215674D02*
X14907444Y-15225198D01*
X14907444Y-15225198D02*
X14916968Y-15244246D01*
X14916968Y-15244246D02*
X14916968Y-15301388D01*
X14916968Y-15301388D02*
X14907444Y-15320436D01*
X14907444Y-15320436D02*
X14897920Y-15329960D01*
X14897920Y-15329960D02*
X14878873Y-15339484D01*
X14878873Y-15339484D02*
X14840777Y-15339484D01*
X14840777Y-15339484D02*
X14821730Y-15329960D01*
X15031253Y-15339484D02*
X15012206Y-15329960D01*
X15012206Y-15329960D02*
X15002682Y-15310912D01*
X15002682Y-15310912D02*
X15002682Y-15139484D01*
X15193158Y-15339484D02*
X15193158Y-15234722D01*
X15193158Y-15234722D02*
X15183634Y-15215674D01*
X15183634Y-15215674D02*
X15164587Y-15206150D01*
X15164587Y-15206150D02*
X15126492Y-15206150D01*
X15126492Y-15206150D02*
X15107444Y-15215674D01*
X15193158Y-15329960D02*
X15174111Y-15339484D01*
X15174111Y-15339484D02*
X15126492Y-15339484D01*
X15126492Y-15339484D02*
X15107444Y-15329960D01*
X15107444Y-15329960D02*
X15097920Y-15310912D01*
X15097920Y-15310912D02*
X15097920Y-15291865D01*
X15097920Y-15291865D02*
X15107444Y-15272817D01*
X15107444Y-15272817D02*
X15126492Y-15263293D01*
X15126492Y-15263293D02*
X15174111Y-15263293D01*
X15174111Y-15263293D02*
X15193158Y-15253769D01*
X15259825Y-15206150D02*
X15336015Y-15206150D01*
X15288396Y-15139484D02*
X15288396Y-15310912D01*
X15288396Y-15310912D02*
X15297920Y-15329960D01*
X15297920Y-15329960D02*
X15316968Y-15339484D01*
X15316968Y-15339484D02*
X15336015Y-15339484D01*
X15478873Y-15329960D02*
X15459825Y-15339484D01*
X15459825Y-15339484D02*
X15421730Y-15339484D01*
X15421730Y-15339484D02*
X15402682Y-15329960D01*
X15402682Y-15329960D02*
X15393158Y-15310912D01*
X15393158Y-15310912D02*
X15393158Y-15234722D01*
X15393158Y-15234722D02*
X15402682Y-15215674D01*
X15402682Y-15215674D02*
X15421730Y-15206150D01*
X15421730Y-15206150D02*
X15459825Y-15206150D01*
X15459825Y-15206150D02*
X15478873Y-15215674D01*
X15478873Y-15215674D02*
X15488396Y-15234722D01*
X15488396Y-15234722D02*
X15488396Y-15253769D01*
X15488396Y-15253769D02*
X15393158Y-15272817D01*
X15659825Y-15339484D02*
X15659825Y-15139484D01*
X15659825Y-15329960D02*
X15640777Y-15339484D01*
X15640777Y-15339484D02*
X15602682Y-15339484D01*
X15602682Y-15339484D02*
X15583634Y-15329960D01*
X15583634Y-15329960D02*
X15574111Y-15320436D01*
X15574111Y-15320436D02*
X15564587Y-15301388D01*
X15564587Y-15301388D02*
X15564587Y-15244246D01*
X15564587Y-15244246D02*
X15574111Y-15225198D01*
X15574111Y-15225198D02*
X15583634Y-15215674D01*
X15583634Y-15215674D02*
X15602682Y-15206150D01*
X15602682Y-15206150D02*
X15640777Y-15206150D01*
X15640777Y-15206150D02*
X15659825Y-15215674D01*
X15736015Y-15415674D02*
X15745539Y-15406150D01*
X15745539Y-15406150D02*
X15764587Y-15377579D01*
X15764587Y-15377579D02*
X15774111Y-15358531D01*
X15774111Y-15358531D02*
X15783634Y-15329960D01*
X15783634Y-15329960D02*
X15793158Y-15282341D01*
X15793158Y-15282341D02*
X15793158Y-15244246D01*
X15793158Y-15244246D02*
X15783634Y-15196627D01*
X15783634Y-15196627D02*
X15774111Y-15168055D01*
X15774111Y-15168055D02*
X15764587Y-15149008D01*
X15764587Y-15149008D02*
X15745539Y-15120436D01*
X15745539Y-15120436D02*
X15736015Y-15110912D01*
M02*
