G04 #@! TF.GenerationSoftware,KiCad,Pcbnew,7.0.10*
G04 #@! TF.CreationDate,2024-05-27T00:37:51+02:00*
G04 #@! TF.ProjectId,ESPHome AIO,45535048-6f6d-4652-9041-494f2e6b6963,rev?*
G04 #@! TF.SameCoordinates,Original*
G04 #@! TF.FileFunction,Soldermask,Top*
G04 #@! TF.FilePolarity,Negative*
%FSLAX46Y46*%
G04 Gerber Fmt 4.6, Leading zero omitted, Abs format (unit mm)*
G04 Created by KiCad (PCBNEW 7.0.10) date 2024-05-27 00:37:51*
%MOMM*%
%LPD*%
G01*
G04 APERTURE LIST*
G04 Aperture macros list*
%AMRoundRect*
0 Rectangle with rounded corners*
0 $1 Rounding radius*
0 $2 $3 $4 $5 $6 $7 $8 $9 X,Y pos of 4 corners*
0 Add a 4 corners polygon primitive as box body*
4,1,4,$2,$3,$4,$5,$6,$7,$8,$9,$2,$3,0*
0 Add four circle primitives for the rounded corners*
1,1,$1+$1,$2,$3*
1,1,$1+$1,$4,$5*
1,1,$1+$1,$6,$7*
1,1,$1+$1,$8,$9*
0 Add four rect primitives between the rounded corners*
20,1,$1+$1,$2,$3,$4,$5,0*
20,1,$1+$1,$4,$5,$6,$7,0*
20,1,$1+$1,$6,$7,$8,$9,0*
20,1,$1+$1,$8,$9,$2,$3,0*%
%AMFreePoly0*
4,1,6,1.000000,0.000000,0.500000,-0.750000,-0.500000,-0.750000,-0.500000,0.750000,0.500000,0.750000,1.000000,0.000000,1.000000,0.000000,$1*%
%AMFreePoly1*
4,1,6,0.500000,-0.750000,-0.650000,-0.750000,-0.150000,0.000000,-0.650000,0.750000,0.500000,0.750000,0.500000,-0.750000,0.500000,-0.750000,$1*%
G04 Aperture macros list end*
%ADD10R,0.600000X1.050000*%
%ADD11C,0.650000*%
%ADD12R,0.600000X1.165000*%
%ADD13R,0.600000X1.185000*%
%ADD14R,0.300000X1.240000*%
%ADD15O,1.000000X2.100000*%
%ADD16O,1.000000X1.800000*%
%ADD17RoundRect,0.250000X-0.262500X-0.450000X0.262500X-0.450000X0.262500X0.450000X-0.262500X0.450000X0*%
%ADD18RoundRect,0.250000X-0.450000X0.262500X-0.450000X-0.262500X0.450000X-0.262500X0.450000X0.262500X0*%
%ADD19RoundRect,0.250000X0.450000X-0.262500X0.450000X0.262500X-0.450000X0.262500X-0.450000X-0.262500X0*%
%ADD20RoundRect,0.250000X0.262500X0.450000X-0.262500X0.450000X-0.262500X-0.450000X0.262500X-0.450000X0*%
%ADD21R,1.700000X1.700000*%
%ADD22O,1.700000X1.700000*%
%ADD23FreePoly0,270.000000*%
%ADD24FreePoly1,270.000000*%
%ADD25R,0.700000X0.300000*%
%ADD26R,1.000000X1.700000*%
%ADD27R,1.050000X0.600000*%
%ADD28RoundRect,0.243750X-0.456250X0.243750X-0.456250X-0.243750X0.456250X-0.243750X0.456250X0.243750X0*%
%ADD29RoundRect,0.243750X0.456250X-0.243750X0.456250X0.243750X-0.456250X0.243750X-0.456250X-0.243750X0*%
%ADD30R,0.650000X1.100000*%
%ADD31RoundRect,0.250000X-0.250000X-0.475000X0.250000X-0.475000X0.250000X0.475000X-0.250000X0.475000X0*%
%ADD32R,1.400000X1.400000*%
%ADD33C,1.400000*%
%ADD34C,1.100000*%
%ADD35R,2.030000X1.730000*%
%ADD36O,2.030000X1.730000*%
%ADD37RoundRect,0.250000X0.475000X-0.250000X0.475000X0.250000X-0.475000X0.250000X-0.475000X-0.250000X0*%
%ADD38R,0.550000X0.200000*%
%ADD39R,0.200000X0.550000*%
%ADD40R,0.350000X0.200000*%
%ADD41R,0.200000X0.350000*%
%ADD42R,2.720000X2.650000*%
%ADD43R,1.530000X2.650000*%
%ADD44R,0.200000X1.100000*%
%ADD45R,0.600000X0.200000*%
%ADD46R,0.650000X2.000000*%
%ADD47R,3.200000X2.390000*%
%ADD48C,2.800000*%
%ADD49RoundRect,0.250000X1.000000X0.650000X-1.000000X0.650000X-1.000000X-0.650000X1.000000X-0.650000X0*%
%ADD50RoundRect,0.093750X0.093750X0.106250X-0.093750X0.106250X-0.093750X-0.106250X0.093750X-0.106250X0*%
%ADD51R,1.000000X1.600000*%
%ADD52FreePoly0,0.000000*%
%ADD53FreePoly1,0.000000*%
%ADD54R,1.100000X0.650000*%
%ADD55C,4.300000*%
%ADD56RoundRect,0.249999X0.790001X1.550001X-0.790001X1.550001X-0.790001X-1.550001X0.790001X-1.550001X0*%
%ADD57O,2.080000X3.600000*%
%ADD58C,2.000000*%
%ADD59RoundRect,0.550000X-0.550000X-0.550000X0.550000X-0.550000X0.550000X0.550000X-0.550000X0.550000X0*%
%ADD60C,2.200000*%
%ADD61RoundRect,0.250000X-0.475000X0.250000X-0.475000X-0.250000X0.475000X-0.250000X0.475000X0.250000X0*%
%ADD62R,3.500000X1.600000*%
%ADD63R,9.750000X12.200000*%
%ADD64C,4.800000*%
%ADD65R,0.900000X0.900000*%
%ADD66R,0.900000X1.500000*%
%ADD67R,1.500000X0.900000*%
%ADD68C,8.600000*%
%ADD69R,1.450000X0.450000*%
%ADD70RoundRect,0.250000X0.250000X0.475000X-0.250000X0.475000X-0.250000X-0.475000X0.250000X-0.475000X0*%
%ADD71RoundRect,0.250000X0.600000X0.750000X-0.600000X0.750000X-0.600000X-0.750000X0.600000X-0.750000X0*%
%ADD72O,1.700000X2.000000*%
%ADD73RoundRect,0.249999X-0.790001X-1.550001X0.790001X-1.550001X0.790001X1.550001X-0.790001X1.550001X0*%
%ADD74R,1.200000X1.200000*%
%ADD75R,2.500000X1.500000*%
%ADD76R,7.000000X7.000000*%
G04 APERTURE END LIST*
D10*
X152300000Y-120800000D03*
X150400000Y-120800000D03*
X151350000Y-123000000D03*
D11*
X111590000Y-47655000D03*
X105810000Y-47655000D03*
D12*
X111900000Y-48812500D03*
D13*
X111100000Y-48802500D03*
D14*
X109950000Y-48775000D03*
X108950000Y-48775000D03*
X108450000Y-48775000D03*
X107450000Y-48775000D03*
D13*
X106300000Y-48802500D03*
D12*
X105500000Y-48812500D03*
X105500000Y-48812500D03*
D13*
X106300000Y-48802500D03*
D14*
X106950000Y-48775000D03*
X107950000Y-48775000D03*
X109450000Y-48775000D03*
X110450000Y-48775000D03*
D13*
X111100000Y-48802500D03*
D12*
X111900000Y-48812500D03*
D15*
X113020000Y-48175000D03*
D16*
X113020000Y-43975000D03*
D15*
X104380000Y-48175000D03*
D16*
X104380000Y-43975000D03*
D17*
X122562500Y-88550000D03*
X124387500Y-88550000D03*
D18*
X116275000Y-88537500D03*
X116275000Y-90362500D03*
X116275000Y-85062500D03*
X116275000Y-86887500D03*
D19*
X123625000Y-86362500D03*
X123625000Y-84537500D03*
D18*
X147900000Y-88937500D03*
X147900000Y-90762500D03*
D20*
X143462500Y-83437500D03*
X141637500Y-83437500D03*
D17*
X141637500Y-81437500D03*
X143462500Y-81437500D03*
D18*
X153100000Y-88937500D03*
X153100000Y-90762500D03*
X139375000Y-82637500D03*
X139375000Y-84462500D03*
X139375000Y-86137500D03*
X139375000Y-87962500D03*
D21*
X153030000Y-86150000D03*
D22*
X150490000Y-86150000D03*
X147950000Y-86150000D03*
D23*
X137050000Y-79075000D03*
D24*
X137050000Y-80525000D03*
D25*
X118725000Y-86362500D03*
X118725000Y-86862500D03*
X118725000Y-87362500D03*
X118725000Y-87862500D03*
X120825000Y-87862500D03*
X120825000Y-87362500D03*
X120825000Y-86862500D03*
X120825000Y-86362500D03*
D26*
X119775000Y-87112500D03*
D25*
X141950000Y-86112500D03*
X141950000Y-86612500D03*
X141950000Y-87112500D03*
X141950000Y-87612500D03*
X144050000Y-87612500D03*
X144050000Y-87112500D03*
X144050000Y-86612500D03*
X144050000Y-86112500D03*
D26*
X143000000Y-86862500D03*
D27*
X148200000Y-80950000D03*
X148200000Y-82850000D03*
X150400000Y-81900000D03*
D28*
X126250000Y-87712500D03*
X126250000Y-89587500D03*
D29*
X145400000Y-83375000D03*
X145400000Y-81500000D03*
D17*
X156987500Y-120100000D03*
X158812500Y-120100000D03*
D18*
X116350000Y-106287500D03*
X116350000Y-108112500D03*
X100000000Y-58037500D03*
X100000000Y-59862500D03*
D30*
X126860000Y-120600000D03*
X124940000Y-120600000D03*
X125900000Y-122700000D03*
D21*
X152060000Y-46400000D03*
D22*
X154600000Y-46400000D03*
X157140000Y-46400000D03*
X159680000Y-46400000D03*
X162220000Y-46400000D03*
D21*
X179220000Y-105560000D03*
D22*
X179220000Y-108100000D03*
X176680000Y-105560000D03*
X176680000Y-108100000D03*
X174140000Y-105560000D03*
X174140000Y-108100000D03*
X171600000Y-105560000D03*
X171600000Y-108100000D03*
X169060000Y-105560000D03*
X169060000Y-108100000D03*
X166520000Y-105560000D03*
X166520000Y-108100000D03*
X163980000Y-105560000D03*
X163980000Y-108100000D03*
X161440000Y-105560000D03*
X161440000Y-108100000D03*
X158900000Y-105560000D03*
X158900000Y-108100000D03*
X156360000Y-105560000D03*
X156360000Y-108100000D03*
X153820000Y-105560000D03*
X153820000Y-108100000D03*
X151280000Y-105560000D03*
X151280000Y-108100000D03*
D17*
X110087500Y-71200000D03*
X111912500Y-71200000D03*
D18*
X158600000Y-82687500D03*
X158600000Y-84512500D03*
D31*
X107550000Y-54900000D03*
X109450000Y-54900000D03*
D32*
X99500000Y-119300000D03*
D33*
X99500000Y-116800000D03*
X99500000Y-114300000D03*
X102800000Y-119300000D03*
X102800000Y-116800000D03*
X102800000Y-114300000D03*
D34*
X174215000Y-121995000D03*
D35*
X176375000Y-127075000D03*
D36*
X176375000Y-124535000D03*
X176375000Y-121995000D03*
X176375000Y-119455000D03*
D37*
X139600000Y-78850000D03*
X139600000Y-76950000D03*
X102050000Y-58500000D03*
X102050000Y-56600000D03*
D36*
X176375000Y-130755000D03*
X176375000Y-133295000D03*
X176375000Y-135835000D03*
D35*
X176375000Y-138375000D03*
D34*
X174215000Y-133295000D03*
D38*
X104475000Y-58475000D03*
X104475000Y-58875000D03*
X104475000Y-59275000D03*
X104475000Y-59675000D03*
X104475000Y-60075000D03*
X104475000Y-60475000D03*
D39*
X105000000Y-61400000D03*
X105400000Y-61400000D03*
X105800000Y-61400000D03*
X106200000Y-61400000D03*
X106600000Y-61400000D03*
X107000000Y-61400000D03*
X107400000Y-61400000D03*
X107800000Y-61400000D03*
X108200000Y-61400000D03*
X108600000Y-61400000D03*
X109000000Y-61400000D03*
X109400000Y-61400000D03*
X109800000Y-61400000D03*
D40*
X110425000Y-60575000D03*
X110425000Y-60125000D03*
X110425000Y-59675000D03*
X110425000Y-59275000D03*
X110425000Y-58825000D03*
X110425000Y-58375000D03*
D39*
X109800000Y-57550000D03*
X109400000Y-57550000D03*
X109000000Y-57550000D03*
X108600000Y-57550000D03*
X108200000Y-57550000D03*
X107800000Y-57550000D03*
D41*
X107399000Y-57450000D03*
X106999000Y-57450000D03*
X106599000Y-57450000D03*
X106199000Y-57450000D03*
D39*
X105800000Y-57550000D03*
X105400000Y-57550000D03*
X105000000Y-57550000D03*
D42*
X106435000Y-59475000D03*
D43*
X108960000Y-59475000D03*
D44*
X110149000Y-60125000D03*
X110150000Y-58825000D03*
D45*
X107199000Y-57725000D03*
X106399000Y-57725000D03*
D46*
X172035000Y-62475000D03*
X173305000Y-62475000D03*
X174575000Y-62475000D03*
X175845000Y-62475000D03*
X175845000Y-57525000D03*
X174575000Y-57525000D03*
X173305000Y-57525000D03*
X172035000Y-57525000D03*
D47*
X173940000Y-60000000D03*
D48*
X140300000Y-108100000D03*
D18*
X160600000Y-81287500D03*
X160600000Y-83112500D03*
D49*
X117300000Y-60650000D03*
X113300000Y-60650000D03*
D50*
X113887500Y-58150000D03*
X113887500Y-57500000D03*
X113887500Y-56850000D03*
X112112500Y-56850000D03*
X112112500Y-57500000D03*
X112112500Y-58150000D03*
D51*
X113000000Y-57500000D03*
D21*
X93700000Y-96600000D03*
D22*
X93700000Y-99140000D03*
X93700000Y-101680000D03*
X93700000Y-104220000D03*
D18*
X107700000Y-73387500D03*
X107700000Y-75212500D03*
D52*
X144350000Y-69500000D03*
D53*
X145800000Y-69500000D03*
D32*
X99500000Y-97900000D03*
D33*
X99500000Y-95400000D03*
X99500000Y-92900000D03*
X102800000Y-97900000D03*
X102800000Y-95400000D03*
X102800000Y-92900000D03*
D18*
X100000000Y-61487500D03*
X100000000Y-63312500D03*
D31*
X111750000Y-53200000D03*
X113650000Y-53200000D03*
D17*
X109727500Y-118300000D03*
X111552500Y-118300000D03*
D48*
X160200000Y-87400000D03*
D54*
X94350000Y-65240000D03*
X94350000Y-67160000D03*
X96450000Y-66200000D03*
D17*
X119827500Y-118500000D03*
X121652500Y-118500000D03*
X146737500Y-123000000D03*
X148562500Y-123000000D03*
X130027500Y-118500000D03*
X131852500Y-118500000D03*
D31*
X118350000Y-84000000D03*
X120250000Y-84000000D03*
D32*
X99500000Y-129200000D03*
D33*
X99500000Y-126700000D03*
X99500000Y-124200000D03*
X102800000Y-129200000D03*
X102800000Y-126700000D03*
X102800000Y-124200000D03*
D55*
X184900000Y-135700000D03*
D18*
X93800000Y-61587500D03*
X93800000Y-63412500D03*
X93800000Y-58087500D03*
X93800000Y-59912500D03*
D32*
X99500000Y-86400000D03*
D33*
X99500000Y-83900000D03*
X99500000Y-81400000D03*
X102800000Y-86400000D03*
X102800000Y-83900000D03*
X102800000Y-81400000D03*
D29*
X96700000Y-59937500D03*
X96700000Y-58062500D03*
D48*
X131200000Y-85700000D03*
D56*
X175940000Y-51377500D03*
D57*
X170860000Y-51377500D03*
D56*
X126490000Y-51427500D03*
D57*
X121410000Y-51427500D03*
D54*
X162000000Y-122790000D03*
X162000000Y-124710000D03*
X164100000Y-123750000D03*
D55*
X184900000Y-45700000D03*
D32*
X99500000Y-107800000D03*
D33*
X99500000Y-105300000D03*
X99500000Y-102800000D03*
X102800000Y-107800000D03*
X102800000Y-105300000D03*
X102800000Y-102800000D03*
D54*
X162000000Y-118240000D03*
X162000000Y-120160000D03*
X164100000Y-119200000D03*
D58*
X119300000Y-97050000D03*
X125800000Y-97050000D03*
X119300000Y-101550000D03*
X125800000Y-101550000D03*
D29*
X107300000Y-71537500D03*
X107300000Y-69662500D03*
D59*
X122800000Y-60500000D03*
X122800000Y-65500000D03*
D60*
X140600000Y-60500000D03*
X140600000Y-65500000D03*
D31*
X111750000Y-55200000D03*
X113650000Y-55200000D03*
D61*
X136450000Y-73250000D03*
X136450000Y-75150000D03*
D30*
X121660000Y-120600000D03*
X119740000Y-120600000D03*
X120700000Y-122700000D03*
D62*
X132500000Y-78230000D03*
X132500000Y-73150000D03*
D63*
X122225000Y-75690000D03*
D21*
X144800000Y-101200000D03*
D22*
X144800000Y-103740000D03*
X144800000Y-106280000D03*
X144800000Y-108820000D03*
D17*
X125077500Y-118500000D03*
X126902500Y-118500000D03*
D64*
X138700000Y-54850000D03*
X138700000Y-49050000D03*
X133900000Y-51850000D03*
D21*
X93700000Y-75200000D03*
D22*
X93700000Y-77740000D03*
X93700000Y-80280000D03*
X93700000Y-82820000D03*
D58*
X119300000Y-106250000D03*
X125800000Y-106250000D03*
X119300000Y-110750000D03*
X125800000Y-110750000D03*
D65*
X175980000Y-78600000D03*
X174580000Y-78600000D03*
X173180000Y-78600000D03*
X173180000Y-77200000D03*
X173180000Y-75800000D03*
X174580000Y-75800000D03*
X175980000Y-75800000D03*
X175980000Y-77200000D03*
X174580000Y-77200000D03*
D66*
X182300000Y-87450000D03*
X181030000Y-87450000D03*
X179760000Y-87450000D03*
X178490000Y-87450000D03*
X177220000Y-87450000D03*
X175950000Y-87450000D03*
X174680000Y-87450000D03*
X173410000Y-87450000D03*
X172140000Y-87450000D03*
X170870000Y-87450000D03*
X169600000Y-87450000D03*
X168330000Y-87450000D03*
X167060000Y-87450000D03*
X165790000Y-87450000D03*
D67*
X164540000Y-85685000D03*
X164540000Y-84415000D03*
X164540000Y-83145000D03*
X164540000Y-81875000D03*
X164540000Y-80605000D03*
X164540000Y-79335000D03*
X164540000Y-78065000D03*
X164540000Y-76795000D03*
X164540000Y-75525000D03*
X164540000Y-74255000D03*
X164540000Y-72985000D03*
X164540000Y-71715000D03*
D66*
X165790000Y-69950000D03*
X167060000Y-69950000D03*
X168330000Y-69950000D03*
X169600000Y-69950000D03*
X170870000Y-69950000D03*
X172140000Y-69950000D03*
X173410000Y-69950000D03*
X174680000Y-69950000D03*
X175950000Y-69950000D03*
X177220000Y-69950000D03*
X178490000Y-69950000D03*
X179760000Y-69950000D03*
X181030000Y-69950000D03*
X182300000Y-69950000D03*
D19*
X159800000Y-114212500D03*
X159800000Y-112387500D03*
D20*
X152362500Y-118700000D03*
X150537500Y-118700000D03*
D68*
X95300000Y-135400000D03*
D34*
X166915000Y-121995000D03*
D35*
X169075000Y-127075000D03*
D36*
X169075000Y-124535000D03*
X169075000Y-121995000D03*
X169075000Y-119455000D03*
D17*
X107287500Y-67200000D03*
X109112500Y-67200000D03*
D69*
X169225000Y-115075000D03*
X169225000Y-114425000D03*
X169225000Y-113775000D03*
X169225000Y-113125000D03*
X164775000Y-113125000D03*
X164775000Y-113775000D03*
X164775000Y-114425000D03*
X164775000Y-115075000D03*
D18*
X116350000Y-97087500D03*
X116350000Y-98912500D03*
D21*
X93700000Y-118100000D03*
D22*
X93700000Y-120640000D03*
X93700000Y-123180000D03*
X93700000Y-125720000D03*
D70*
X114450000Y-65550000D03*
X112550000Y-65550000D03*
D32*
X99500000Y-76500000D03*
D33*
X99500000Y-74000000D03*
X99500000Y-71500000D03*
X102800000Y-76500000D03*
X102800000Y-74000000D03*
X102800000Y-71500000D03*
D71*
X177700000Y-114500000D03*
D72*
X175200000Y-114500000D03*
D73*
X146420000Y-129822500D03*
D57*
X151500000Y-129822500D03*
X156580000Y-129822500D03*
D30*
X116660000Y-120600000D03*
X114740000Y-120600000D03*
X115700000Y-122700000D03*
D48*
X146300000Y-59200000D03*
D73*
X110600000Y-129822500D03*
D57*
X115680000Y-129822500D03*
X120760000Y-129822500D03*
X125840000Y-129822500D03*
X130920000Y-129822500D03*
X136000000Y-129822500D03*
D68*
X95100000Y-46100000D03*
D61*
X139650000Y-73250000D03*
X139650000Y-75150000D03*
D74*
X144700000Y-64900000D03*
X147500000Y-64900000D03*
D70*
X114450000Y-67600000D03*
X112550000Y-67600000D03*
D18*
X96700000Y-61687500D03*
X96700000Y-63512500D03*
D17*
X114877500Y-118500000D03*
X116702500Y-118500000D03*
D30*
X131860000Y-120600000D03*
X129940000Y-120600000D03*
X130900000Y-122700000D03*
D70*
X106850000Y-51100000D03*
X104950000Y-51100000D03*
X114450000Y-63500000D03*
X112550000Y-63500000D03*
D48*
X158150000Y-91550000D03*
D30*
X111560000Y-120600000D03*
X109640000Y-120600000D03*
X110600000Y-122700000D03*
D17*
X107337500Y-63750000D03*
X109162500Y-63750000D03*
D75*
X143550000Y-73200000D03*
D76*
X149800000Y-75500000D03*
D75*
X143550000Y-77800000D03*
D34*
X166915000Y-133295000D03*
D35*
X169075000Y-138375000D03*
D36*
X169075000Y-135835000D03*
X169075000Y-133295000D03*
X169075000Y-130755000D03*
D30*
X112060000Y-73700000D03*
X110140000Y-73700000D03*
X111100000Y-75800000D03*
D31*
X111750000Y-51200000D03*
X113650000Y-51200000D03*
M02*
